<?xml version="1.0" encoding="UTF-8" standalone="no"?>
<!-- Created with Inkscape (http://www.inkscape.org/) -->

<svg
   version="1.1"
   id="svg2"
   width="570.6507"
   height="904.03491"
   viewBox="0 0 570.6507 904.03491"
   sodipodi:docname="cover.svg"
   inkscape:version="1.2.2 (b0a8486541, 2022-12-01)"
   xmlns:inkscape="http://www.inkscape.org/namespaces/inkscape"
   xmlns:sodipodi="http://sodipodi.sourceforge.net/DTD/sodipodi-0.dtd"
   xmlns="http://www.w3.org/2000/svg"
   xmlns:svg="http://www.w3.org/2000/svg">
  <defs
     id="defs6">
    <clipPath
       clipPathUnits="userSpaceOnUse"
       id="clipPath20">
      <path
         d="M 518.503,0 H 963.78 V 363.588 H 518.503 Z"
         id="path18" />
    </clipPath>
    <clipPath
       clipPathUnits="userSpaceOnUse"
       id="clipPath78">
      <path
         d="M 0,0 H 963.78 V 680.315 H 0 Z"
         id="path76" />
    </clipPath>
    <clipPath
       clipPathUnits="userSpaceOnUse"
       id="clipPath108">
      <path
         d="M 0,0 H 963.78 V 680.315 H 0 Z"
         id="path106" />
    </clipPath>
    <clipPath
       clipPathUnits="userSpaceOnUse"
       id="clipPath246">
      <path
         d="m 273.165,35.573 h 111.26 v 57.59 h -111.26 z"
         id="path244" />
    </clipPath>
    <clipPath
       clipPathUnits="userSpaceOnUse"
       id="clipPath262">
      <path
         d="M 0,0 H 963.78 V 680.315 H 0 Z"
         id="path260" />
    </clipPath>
    <clipPath
       clipPathUnits="userSpaceOnUse"
       id="clipPath310">
      <path
         d="M 0,0 H 963.78 V 680.315 H 0 Z"
         id="path308" />
    </clipPath>
    <clipPath
       clipPathUnits="userSpaceOnUse"
       id="clipPath338">
      <path
         d="M 0,0 H 963.78 V 680.315 H 0 Z"
         id="path336" />
    </clipPath>
    <clipPath
       clipPathUnits="userSpaceOnUse"
       id="clipPath450">
      <path
         d="M 0,0 H 963.78 V 680.315 H 0 Z"
         id="path448" />
    </clipPath>
    <clipPath
       clipPathUnits="userSpaceOnUse"
       id="clipPath478">
      <path
         d="M 0,0 H 963.78 V 680.315 H 0 Z"
         id="path476" />
    </clipPath>
    <clipPath
       clipPathUnits="userSpaceOnUse"
       id="clipPath534">
      <path
         d="M 0,0 H 963.78 V 680.315 H 0 Z"
         id="path532" />
    </clipPath>
    <clipPath
       clipPathUnits="userSpaceOnUse"
       id="clipPath1184">
      <g
         id="g1188"
         style="stroke-width:1"
         transform="translate(-798.2106,-79.9813)">
        <path
           d="M 0,0 H 963.78 V 680.315 H 0 Z"
           id="path1186"
           style="stroke-width:1" />
      </g>
    </clipPath>
    <clipPath
       clipPathUnits="userSpaceOnUse"
       id="clipPath1190">
      <g
         id="g1194"
         style="stroke-width:1"
         transform="translate(-792.7653,-79.9813)">
        <path
           d="M 0,0 H 963.78 V 680.315 H 0 Z"
           id="path1192"
           style="stroke-width:1" />
      </g>
    </clipPath>
    <clipPath
       clipPathUnits="userSpaceOnUse"
       id="clipPath1196">
      <g
         id="g1200"
         style="stroke-width:1"
         transform="translate(-782.7994,-77.7138)">
        <path
           d="M 0,0 H 963.78 V 680.315 H 0 Z"
           id="path1198"
           style="stroke-width:1" />
      </g>
    </clipPath>
    <clipPath
       clipPathUnits="userSpaceOnUse"
       id="clipPath1202">
      <g
         id="g1206"
         style="stroke-width:1"
         transform="translate(-778.2516,-80.4579)">
        <path
           d="M 0,0 H 963.78 V 680.315 H 0 Z"
           id="path1204"
           style="stroke-width:1" />
      </g>
    </clipPath>
    <clipPath
       clipPathUnits="userSpaceOnUse"
       id="clipPath1208">
      <g
         id="g1212"
         style="stroke-width:1"
         transform="translate(-771.0016,-82.2772)">
        <path
           d="M 0,0 H 963.78 V 680.315 H 0 Z"
           id="path1210"
           style="stroke-width:1" />
      </g>
    </clipPath>
    <clipPath
       clipPathUnits="userSpaceOnUse"
       id="clipPath1214">
      <g
         id="g1218"
         style="stroke-width:1"
         transform="translate(-764.0206,-82.4315)">
        <path
           d="M 0,0 H 963.78 V 680.315 H 0 Z"
           id="path1216"
           style="stroke-width:1" />
      </g>
    </clipPath>
    <clipPath
       clipPathUnits="userSpaceOnUse"
       id="clipPath1220">
      <g
         id="g1224"
         style="stroke-width:1"
         transform="translate(-748.2715,-73.4579)">
        <path
           d="M 0,0 H 963.78 V 680.315 H 0 Z"
           id="path1222"
           style="stroke-width:1" />
      </g>
    </clipPath>
    <clipPath
       clipPathUnits="userSpaceOnUse"
       id="clipPath1226">
      <g
         id="g1230"
         style="stroke-width:1"
         transform="translate(-746.6647,-82.4315)">
        <path
           d="M 0,0 H 963.78 V 680.315 H 0 Z"
           id="path1228"
           style="stroke-width:1" />
      </g>
    </clipPath>
    <clipPath
       clipPathUnits="userSpaceOnUse"
       id="clipPath1232">
      <g
         id="g1236"
         style="stroke-width:1"
         transform="translate(-38.912,-55.325)">
        <path
           d="M 0,0 H 963.78 V 680.315 H 0 Z"
           id="path1234"
           style="stroke-width:1" />
      </g>
    </clipPath>
    <clipPath
       clipPathUnits="userSpaceOnUse"
       id="clipPath1238">
      <g
         id="g1242"
         style="stroke-width:1"
         transform="translate(-38.6151,-36.7458)">
        <path
           d="M 0,0 H 963.78 V 680.315 H 0 Z"
           id="path1240"
           style="stroke-width:1" />
      </g>
    </clipPath>
    <clipPath
       clipPathUnits="userSpaceOnUse"
       id="clipPath1244">
      <g
         id="g1248"
         style="stroke-width:1"
         transform="translate(-68.8371,-77.4719)">
        <path
           d="M 0,0 H 963.78 V 680.315 H 0 Z"
           id="path1246"
           style="stroke-width:1" />
      </g>
    </clipPath>
  </defs>
  <sodipodi:namedview
     id="namedview4"
     pagecolor="#ffffff"
     bordercolor="#666666"
     borderopacity="1.0"
     inkscape:showpageshadow="2"
     inkscape:pageopacity="0.0"
     inkscape:pagecheckerboard="0"
     inkscape:deskcolor="#d1d1d1"
     showgrid="false"
     inkscape:zoom="0.81609773"
     inkscape:cx="82.09801"
     inkscape:cy="374.34242"
     inkscape:window-width="1366"
     inkscape:window-height="742"
     inkscape:window-x="0"
     inkscape:window-y="0"
     inkscape:window-maximized="1"
     inkscape:current-layer="g10">
    <inkscape:page
       x="0"
       y="0"
       id="page8"
       width="570.6507"
       height="904.03491" />
  </sodipodi:namedview>
  <g
     id="g10"
     inkscape:groupmode="layer"
     inkscape:label="Page 1"
     transform="matrix(1.3333333,0,0,-1.3333333,-712.66267,904.48933)">
    <path
       d="M 518.52217,0 H 963.78 V 680.315 H 518.52217 Z"
       style="fill:#2f5255;fill-opacity:1;fill-rule:nonzero;stroke:none;stroke-width:0.999992"
       id="path12" />
    <g
       id="g14">
      <g
         id="g16"
         clip-path="url(#clipPath20)">
        <g
           id="g22"
           transform="translate(513.1558,-49.0546)">
          <path
             d="m 0,0 c 4.364,7.392 20.254,34.304 20.254,34.304 0,0 -15.762,26.601 -20.254,34.187 z m 0,467.068 v -32.669 c 3.7,6.289 15.686,26.668 19.215,32.669 z M 0,70.488 c 6.902,0.009 41.718,0.078 41.718,0.078 L 20.254,34.304 h 42.762 l 21.466,36.215 -42.764,0.047 21.329,36.165 -42.708,0.047 21.327,36.167 c 0,0 -34.766,-0.033 -41.666,-0.035 v -36.142 c 11.544,0.006 20.339,0.01 20.339,0.01 0,0 -15.835,-26.705 -20.339,-34.304 z m 0,108.65 c 10.3,-0.005 20.254,-0.017 20.254,-0.017 l 21.464,36.215 c 0,0 -35.16,0.031 -41.718,0.038 z m 0,38.008 c 4.279,7.277 20.254,34.405 20.254,34.405 0,0 -9.954,0.006 -20.254,0.015 z m 0,72.427 c 4.364,7.405 20.285,34.404 20.285,34.404 l 42.816,0.001 -42.847,-72.427 h 42.793 l 42.731,72.376 -42.677,0.051 42.766,72.426 H 63.101 l 21.331,36.131 -42.763,0.081 -21.415,-36.265 42.847,0.053 -21.466,-36.265 c 0,0 -35.084,0.04 -41.635,0.049 z m 0,72.394 c 4.283,7.269 20.254,34.384 20.254,34.384 H 0 Z m 127.245,-146.631 21.333,36.212 -42.8,-0.047 -21.381,-36.212 z m -0.047,-72.391 21.38,36.176 -42.8,0.037 -21.296,-36.213 z m 21.38,181.029 21.382,36.165 -42.762,0.052 z M 170.454,-1.067 c 3.217,5.437 20.887,35.371 20.887,35.371 h -42.763 c 0,0 -17.633,-29.845 -20.901,-35.371 z m 85.031,143.977 -21.243,-36.132 -42.901,-0.047 -21.332,-36.249 -85.527,0.037 21.334,36.259 42.762,-0.047 h 42.763 l 21.466,36.214 -42.847,-0.035 21.465,36.248 -42.847,-0.037 21.431,36.253 42.767,-0.038 -21.351,-36.178 42.68,-0.037 -21.298,-36.176 z m 0.586,-143.977 c 3.204,5.437 20.849,35.371 20.849,35.371 l -42.763,0.047 c 0,0 -17.676,-29.977 -20.887,-35.418 z m -65.657,468.135 c -4.257,-7.18 -20.454,-34.502 -20.454,-34.502 l -21.382,-36.215 42.851,0.053 -21.469,-36.265 h 42.766 l -21.301,-36.165 h 42.732 l -21.433,-36.26 42.815,0.047 -42.763,-72.425 42.847,0.038 -21.518,-36.253 h 42.852 l 21.344,36.215 -42.678,0.038 42.631,72.34 -42.715,0.047 21.381,36.166 -42.763,0.047 21.466,36.133 -42.897,0.032 21.431,36.265 h -42.728 c 0,0 35.258,59.719 41.717,70.664 z m 128.282,0 c -4.194,-7.116 -20.306,-34.45 -20.306,-34.45 l 42.712,-0.083 -21.416,-36.184 -85.529,0.053 21.382,36.162 c 0,0 -16.132,27.322 -20.371,34.502 z m 22.454,-396.549 21.42,36.176 -42.848,0.083 -21.421,-36.259 z m 42.717,217.242 21.383,36.166 -85.616,0.085 -21.38,-36.298 42.896,0.047 z m 42.85,0 -21.418,-36.26 -42.813,0.083 21.381,36.177 z m -21.467,-108.603 21.382,36.178 -42.765,0.038 z m 62.883,253.434 c -20.963,-0.013 -41.501,-0.026 -41.501,-0.026 l -21.418,-36.162 -21.296,-36.265 c 0,0 73.319,-0.027 84.215,-0.032 z m 0,-362.073 H 426.632 L 405.25,34.304 383.918,70.482 c 0,0 -37.659,-63.699 -42.301,-71.549 h 42.85 c 3.245,5.526 20.783,35.371 20.783,35.371 h 42.764 c 0,0 -17.637,-29.845 -20.903,-35.371 h 41.022 v 35.393 c -10.257,-0.01 -20.119,-0.022 -20.119,-0.022 0,0 15.463,26.129 20.119,33.999 z"
             style="fill:#ebd497;fill-opacity:1;fill-rule:evenodd;stroke:none"
             id="path24" />
        </g>
        <g
           id="g26"
           transform="translate(513.1558,23.4194)">
          <path
             d="m 0,0 c 4.504,7.599 20.339,34.303 20.339,34.303 0,0 -8.795,-0.002 -20.339,-0.009 z m 0,358.201 c 4.363,-7.392 20.254,-34.323 20.254,-34.323 H 0 Z M 0,213.384 c 4.359,-7.392 20.254,-34.308 20.254,-34.308 0,0 -9.954,0.007 -20.254,0.015 z M 0,-3.984 c 4.492,-7.585 20.254,-34.185 20.254,-34.185 l 21.464,36.261 c 0,0 -34.816,-0.069 -41.718,-0.078 z M 63.101,323.93 20.254,323.878 41.635,287.665 Z M 41.635,215.29 63.101,251.504 20.285,251.503 Z m 21.412,-36.214 21.35,-36.261 -42.679,0.047 -21.464,36.214 z m 64.198,-36.214 21.333,-36.214 -42.8,0.036 -21.381,36.131 z m 42.715,-72.426 21.465,36.248 -42.847,-0.036 z m 21.469,253.494 -42.851,-0.052 21.382,-36.213 z m -21.42,-325.922 21.332,-36.177 h -42.763 l -42.762,0.047 -21.334,36.167 z m 42.798,72.464 -42.847,-0.036 21.381,-36.179 z m 0,-72.464 21.435,36.295 -42.901,-0.046 z m 42.816,144.89 -42.847,-0.036 21.329,-36.214 z m 21.334,-36.25 21.344,-36.212 h -42.816 l -21.38,36.212 z m 42.765,72.426 21.428,36.213 -42.896,-0.048 z M 341.15,-1.955 362.486,-38.122 h -42.764 l -21.421,36.167 z m 85.482,144.817 -21.333,36.166 -42.813,0.082 21.381,-36.212 z m 41.501,144.771 c -10.896,0.005 -84.215,0.032 -84.215,0.032 l 21.332,-36.212 42.815,0.047 h 20.068 z"
             style="fill:#153033;fill-opacity:1;fill-rule:evenodd;stroke:none"
             id="path28" />
        </g>
        <g
           id="g30"
           transform="translate(513.1558,240.5187)">
          <path
             d="M 0,0 C 4.364,7.405 20.285,34.403 20.285,34.403 L 41.635,-1.809 20.254,-38.023 c 0,0 -15.895,26.915 -20.254,34.308 z m 63.047,-110.415 -21.381,-36.213 -21.412,36.176 21.464,36.214 z M 62.039,177.494 C 55.576,166.547 20.288,106.778 20.288,106.778 L 41.635,70.565 c 0,0 -35.084,0.041 -41.635,0.05 v 1.779 c 4.283,7.268 20.254,34.384 20.254,34.384 0,0 -15.891,26.931 -20.254,34.324 v 3.724 c 3.7,6.289 15.686,26.668 19.215,32.668 z M 83.997,-290.64 c -3.277,5.525 -20.981,35.371 -20.981,35.371 l 21.466,36.214 21.334,-36.167 c 0,0 -17.544,-29.888 -20.786,-35.418 z M 127.198,70.616 H 84.482 l 21.385,36.214 H 63.101 l 21.331,36.131 21.435,-36.131 z m 0.084,-72.51 -42.885,0.034 21.381,36.214 z m 21.344,-108.558 21.383,36.251 -21.431,36.176 -21.333,-36.213 21.333,-36.214 -21.38,-36.176 42.762,-0.037 z m 21.828,-180.188 c 3.217,5.436 20.887,35.371 20.887,35.371 l -21.332,36.178 21.332,36.248 42.816,-72.379 c 0,0 -17.676,-29.977 -20.887,-35.418 z m 64.714,468.134 c 4.239,-7.179 20.371,-34.502 20.371,-34.502 L 234.157,106.83 h -42.728 c 0,0 35.258,59.719 41.717,70.664 z m 20.317,-324.159 -21.296,36.25 -21.413,36.177 -21.351,-36.177 42.68,-0.037 -21.298,-36.176 z m 21.435,181.019 -42.763,0.047 21.466,36.133 z M 256.071,-290.64 c 3.204,5.436 20.849,35.371 20.849,35.371 0,0 17.672,-29.935 20.887,-35.371 z m 63.651,252.615 -21.421,-36.213 -42.678,0.037 42.631,72.341 z m 21.38,180.986 21.384,-36.131 -21.334,-36.296 -21.466,36.244 z m 0.05,-72.427 21.299,-36.18 -42.817,0.084 z m 42.766,-289.625 -21.432,-36.131 -21.336,36.167 21.42,36.176 z m 84.215,-2.179 c -4.656,-7.871 -20.119,-33.999 -20.119,-33.999 0,0 9.862,0.01 20.119,0.022 z"
             style="fill:#2f5154;fill-opacity:1;fill-rule:evenodd;stroke:none"
             id="path32" />
        </g>
        <g
           id="g34"
           transform="translate(513.1558,93.8549)">
          <path
             d="M 0,0 C 6.9,0.004 41.666,0.037 41.666,0.037 L 20.254,36.213 C 20.254,36.213 4.492,9.586 0,1.997 Z m 42.13,-143.975 c 3.215,5.436 20.886,35.371 20.886,35.371 0,0 17.704,-29.847 20.981,-35.371 z m 106.448,252.613 -42.8,-0.047 21.504,36.178 z m -43.788,215.52 c -4.2,-7.126 -20.358,-34.533 -20.358,-34.533 l 21.435,-36.13 21.381,36.13 21.33,-36.183 -21.38,-36.161 -21.42,-36.263 21.504,-36.249 21.296,36.295 -21.38,36.217 42.762,-0.052 -21.382,36.213 21.382,36.215 c 0,0 -16.011,27.107 -20.378,34.501 h -2.167 c -4.318,-7.399 -20.167,-34.533 -20.167,-34.533 0,0 -16.248,27.407 -20.471,34.533 z M 191.341,-36.179 169.96,0 148.578,-36.179 Z m 149.811,253.376 -21.518,-36.095 -21.296,36.127 21.348,36.213 z m -43.345,-361.172 c -3.215,5.436 -20.887,35.371 -20.887,35.371 l 21.381,36.213 -42.816,-0.036 L 298.301,0 319.722,-36.132 341.102,0 l 21.468,-36.215 -42.848,0.083 -21.421,-36.259 21.421,-36.168 c 0,0 -17.704,-29.975 -20.92,-35.416 z M 405.25,36.248 362.451,36.166 383.867,72.464 h -42.765 l 21.384,36.211 z m 62.883,253.409 h -41.501 c 0,0 16.18,27.378 20.388,34.501 h 1.986 c 3.489,-5.89 15.184,-25.628 19.127,-32.287 z m 0,-291.951 c -10.24,-17.29 -20.068,-33.885 -20.068,-33.885 0,0 9.831,0.011 20.068,0.023 z m 0,147.147 h -41.416 l 21.348,36.211 c 0,0 15.419,-26.111 20.068,-33.992 z m 0,-70.262 c -4.533,7.692 -20.068,34.047 -20.068,34.047 0,0 15.419,26.118 20.068,33.993 z"
             style="fill:#7c2c19;fill-opacity:1;fill-rule:evenodd;stroke:none"
             id="path36" />
        </g>
        <g
           id="g38"
           transform="translate(513.1558,95.8525)">
          <path
             d="m 0,0 c 4.492,7.588 20.254,34.214 20.254,34.214 0,0 -9.954,0.012 -20.254,0.017 z m 0,72.239 c 4.279,7.277 20.254,34.405 20.254,34.405 L 41.718,70.428 c 0,0 -35.16,0.032 -41.718,0.037 z m 0,-218.213 h 42.13 c 3.215,5.437 20.886,35.371 20.886,35.371 H 20.254 c 0,0 -15.89,-26.913 -20.254,-34.304 z m 62.039,468.135 c -4.242,-7.174 -20.37,-34.452 -20.37,-34.452 l 42.763,-0.082 c 0,0 16.158,27.407 20.358,34.534 z m 65.243,-179.39 -42.885,0.036 -21.35,-36.163 42.731,-0.05 z m -20.505,179.39 c 4.223,-7.127 20.471,-34.534 20.471,-34.534 0,0 15.849,27.134 20.167,34.534 z m 41.801,-70.717 -42.711,0.052 21.331,-36.212 H 84.482 l -21.381,-36.213 42.677,-0.051 21.42,36.264 z m -20.901,-397.418 c 3.268,5.526 20.901,35.371 20.901,35.371 l -42.762,0.047 c 0,0 -17.544,-29.888 -20.786,-35.418 z M 169.96,-1.997 84.482,-1.962 105.778,34.251 84.397,70.381 41.666,-1.962 20.339,-38.13 l 42.708,-0.046 -21.329,-36.166 42.764,-0.047 21.334,36.259 42.762,-0.046 z m 85.579,144.85 -42.815,-0.046 21.433,36.26 h -42.732 l 21.301,36.164 H 169.96 l -42.678,-72.46 h 42.81 l 42.632,0.036 -21.383,-36.13 -42.763,-0.036 21.431,-36.176 42.767,-0.037 z m 21.381,-253.456 21.381,36.214 -42.816,-0.037 42.816,72.429 H 255.485 L 234.242,-38.13 212.807,-74.426 h 42.678 l -21.328,-36.13 z m 21.418,325.834 21.348,36.213 -85.529,0.052 -21.431,-36.265 42.897,-0.031 z m 21.296,-36.126 -42.714,-0.085 -21.381,-36.167 42.715,-0.046 z m 0.088,-217.235 21.38,36.133 h -42.801 z m -20.851,-107.844 c 10.502,17.843 20.851,35.418 20.851,35.418 h 42.764 c 0,0 -17.749,-30.123 -20.869,-35.418 z m 106.343,397.47 -21.296,-36.265 -42.766,-0.031 21.334,36.296 z m -86.518,70.665 C 314.502,315.044 298.39,287.71 298.39,287.71 l 42.712,-0.083 85.53,0.031 c 0,0 16.18,27.38 20.388,34.503 z m 65.771,-468.135 c 3.245,5.526 20.783,35.371 20.783,35.371 h 42.764 c 0,0 -17.637,-29.845 -20.903,-35.371 z m 83.666,325.041 h -20.068 c 0,0 15.419,-26.111 20.068,-33.992 z m 0,-36.213 h -41.416 l 21.348,36.213 -42.815,-0.047 -21.383,-36.166 H 341.15 l -64.193,-108.64 85.494,-0.047 -21.349,-36.164 85.495,-0.049 -21.263,-36.084 -21.416,-36.296 42.714,0.037 h 41.501 v 36.235 c -10.232,-0.012 -20.068,-0.022 -20.068,-0.022 0,0 9.828,16.594 20.068,33.884 v 74.804 c -6.991,-0.016 -41.501,-0.084 -41.501,-0.084 L 405.25,34.251 362.451,34.167 383.867,70.465 h -42.765 l 21.384,36.212 21.381,36.177 42.73,-0.047 -21.298,-36.213 42.766,0.047 c 0,0 15.419,26.117 20.068,33.992 z"
             style="fill:#f35f28;fill-opacity:1;fill-rule:evenodd;stroke:none"
             id="path40" />
        </g>
        <g
           id="g42"
           transform="translate(618.9341,202.4466)">
          <path
             d="m 0,0 -42.732,0.049 21.35,-36.215 h -42.677 l 21.327,-36.177 21.35,36.13 z M 21.47,181.034 42.8,144.85 0.088,144.902 Z M 106.945,36.213 64.315,36.177 H 21.504 L 42.8,0.047 85.564,0.082 Z m 21.434,-253.363 21.328,36.13 H 107.03 Z m 64.181,325.787 21.296,-36.126 -42.715,-0.085 -21.296,36.179 z m 64.113,-181.063 -85.494,0.046 21.344,-36.212 h 42.801 z m 42.798,144.852 -21.332,36.211 -42.764,-0.032 21.298,-36.179 z m 21.383,108.638 -85.532,-0.03 21.387,-36.132 h 42.727 z m -0.036,-289.704 -21.262,-36.083 -21.417,-36.297 42.715,0.037 -21.383,-36.214 -42.679,72.39 -21.468,36.215 z m 41.538,72.558 c -6.993,-0.015 -41.502,-0.084 -41.502,-0.084 L 299.521,0 342.286,0.047 c 0,0 15.537,-26.356 20.07,-34.049 z"
             style="fill:#ebd497;fill-opacity:1;fill-rule:evenodd;stroke:none"
             id="path44" />
        </g>
      </g>
    </g>
    <g
       aria-label="The Pragmatic Programmer "
       transform="scale(1.0198039,-0.98058067)"
       id="text48"
       style="font-weight:bold;font-size:32px;font-family:'Rotis SemiSans Std';-inkscape-font-specification:'Rotis SemiSans Std, Bold';fill:#ffffff;stroke-width:0.980581">
      <path
         d="m 574.98553,-598.85002 v -2.112 h -14.208 v 2.112 h 5.344 v 19.968 h 3.52 v -19.968 z"
         id="path2173" />
      <path
         d="m 589.86552,-578.88202 v -11.136 c 0,-2.368 -1.28,-4.448 -3.84,-4.448 -2.624,0 -4.32,1.728 -5.344,3.968 h -0.064 v -10.464 h -3.232 v 22.08 h 3.232 v -6.304 c 0,-2.368 1.088,-6.88 4.096,-6.88 1.856,0 1.92,2.304 1.92,3.648 v 9.536 z"
         id="path2170" />
      <path
         d="m 605.83352,-588.22602 c 0,-3.904 -1.728,-6.24 -5.856,-6.24 -4.672,0 -6.496,2.944 -6.496,7.296 0,4.96 2.336,8.64 7.616,8.64 1.664,0 2.912,-0.224 4.448,-0.864 v -1.472 c -0.928,0.416 -1.92,0.64 -2.912,0.64 -4.224,0 -5.92,-4.384 -5.92,-8 z m -3.168,-1.472 h -5.856 c 0.128,-1.76 1.088,-3.424 3.04,-3.424 2.016,0 2.816,1.632 2.816,3.424 z"
         id="path2167" />
      <path
         d="m 631.5615,-594.88202 c 0,-5.408 -4.096,-6.08 -8.544,-6.08 h -4.544 v 22.08 h 3.52 v -9.728 h 1.024 c 4.416,0 8.544,-0.896 8.544,-6.272 z m -3.52,0 c 0,3.52 -1.952,4.16 -5.024,4.16 h -1.024 v -8.128 h 1.024 c 2.976,0 5.024,0.544 5.024,3.968 z"
         id="path2164" />
      <path
         d="m 642.56948,-591.10602 v -3.36 c -2.688,0.224 -3.84,2.016 -4.928,4.224 h -0.064 v -3.872 h -3.232 v 15.232 h 3.232 v -6.976 c 0,-3.616 1.408,-5.152 4.992,-5.248 z"
         id="path2161" />
      <path
         d="m 655.75348,-578.88202 v -9.824 c 0,-3.904 -1.152,-5.76 -5.376,-5.76 -3.392,0 -5.6,1.12 -5.856,4.672 h 3.392 c 0.096,-1.664 0.416,-3.328 2.464,-3.328 2.176,0 2.144,2.88 2.144,4.416 v 1.344 c -3.232,0.16 -8.512,0.736 -8.512,5.024 0,2.304 1.984,3.808 4.16,3.808 1.792,0 3.392,-0.928 4.288,-2.464 h 0.064 v 2.112 z m -3.232,-5.344 c 0,1.408 -0.64,2.688 -1.92,3.36 -0.352,0.192 -0.8,0.32 -1.216,0.32 -1.248,0 -1.856,-1.152 -1.856,-2.272 0,-2.56 3.008,-3.072 4.992,-3.2 z"
         id="path2158" />
      <path
         d="m 672.3295,-579.33002 v -14.784 h -3.232 v 2.496 h -0.064 c -0.704,-1.728 -2.048,-2.848 -3.968,-2.848 -4.64,0 -5.728,3.904 -5.728,7.808 0,3.776 1.248,7.776 5.728,7.776 1.76,0 3.072,-0.576 3.968,-2.112 h 0.064 c 0,3.104 0.544,7.392 -3.776,7.392 -1.856,0 -3.36,-0.928 -4.896,-1.856 v 3.168 c 1.44,0.384 2.88,0.608 4.384,0.608 5.344,0 7.52,-2.464 7.52,-7.648 z m -3.328,-7.168 c 0,2.144 -0.128,5.76 -3.072,5.76 -2.784,0 -3.072,-3.904 -3.072,-5.92 0,-2.016 0.32,-5.76 3.072,-5.76 2.848,0 3.072,3.84 3.072,5.92 z"
         id="path2155" />
      <path
         d="m 697.22547,-578.88202 v -10.336 c 0,-2.656 -0.64,-5.248 -3.84,-5.248 -2.528,0 -3.68,1.728 -4.608,3.776 h -0.064 c -0.128,-2.144 -1.536,-3.776 -3.776,-3.776 -2.304,0 -3.968,1.888 -4.608,3.968 h -0.064 v -3.616 h -3.232 v 15.232 h 3.232 v -6.304 c 0,-2.08 0.48,-6.88 3.328,-6.88 1.952,0 1.92,2.24 1.92,3.648 v 9.536 h 3.232 v -6.336 c 0,-2.048 0.608,-6.848 3.392,-6.848 1.792,0 1.856,2.048 1.856,3.36 v 9.824 z"
         id="path2152" />
      <path
         d="m 712.71344,-578.88202 v -9.824 c 0,-3.904 -1.152,-5.76 -5.376,-5.76 -3.392,0 -5.6,1.12 -5.856,4.672 h 3.392 c 0.096,-1.664 0.416,-3.328 2.464,-3.328 2.176,0 2.144,2.88 2.144,4.416 v 1.344 c -3.232,0.16 -8.512,0.736 -8.512,5.024 0,2.304 1.984,3.808 4.16,3.808 1.792,0 3.392,-0.928 4.288,-2.464 h 0.064 v 2.112 z m -3.232,-5.344 c 0,1.408 -0.64,2.688 -1.92,3.36 -0.352,0.192 -0.8,0.32 -1.216,0.32 -1.248,0 -1.856,-1.152 -1.856,-2.272 0,-2.56 3.008,-3.072 4.992,-3.2 z"
         id="path2149" />
      <path
         d="m 725.73746,-592.45002 v -1.664 h -4.16 v -5.536 l -3.232,1.952 v 3.584 h -2.432 v 1.664 h 2.432 v 10.048 c 0,3.136 2.016,3.872 4.8,3.872 0.736,0 1.504,-0.032 2.24,-0.224 v -1.856 c -0.48,0.192 -0.992,0.256 -1.504,0.256 -2.272,0 -2.304,-1.472 -2.304,-3.328 v -8.768 z"
         id="path2146" />
      <path
         d="m 732.13745,-597.76202 v -3.2 h -3.488 v 3.2 z m -0.128,18.88 v -15.232 h -3.232 v 15.232 z"
         id="path2143" />
      <path
         d="m 747.75346,-589.15402 c 0,-3.616 -1.888,-5.312 -5.472,-5.312 -4.608,0 -6.464,3.072 -6.464,7.36 0,5.056 2.272,8.576 7.648,8.576 1.376,0 2.752,-0.288 4.064,-0.768 v -1.504 c -0.864,0.352 -1.792,0.576 -2.72,0.576 -4.096,0 -5.472,-4.608 -5.472,-7.968 0,-1.728 0.48,-4.928 2.816,-4.928 2.112,0 2.208,2.4 2.208,3.968 z"
         id="path2140" />
      <path
         d="m 772.71347,-594.88202 c 0,-5.408 -4.096,-6.08 -8.544,-6.08 h -4.544 v 22.08 h 3.52 v -9.728 h 1.024 c 4.416,0 8.544,-0.896 8.544,-6.272 z m -3.52,0 c 0,3.52 -1.952,4.16 -5.024,4.16 h -1.024 v -8.128 h 1.024 c 2.976,0 5.024,0.544 5.024,3.968 z"
         id="path2137" />
      <path
         d="m 783.72146,-591.10602 v -3.36 c -2.688,0.224 -3.84,2.016 -4.928,4.224 h -0.064 v -3.872 h -3.232 v 15.232 h 3.232 v -6.976 c 0,-3.616 1.408,-5.152 4.992,-5.248 z"
         id="path2134" />
      <path
         d="m 798.53746,-586.49802 c 0,-4.544 -1.792,-7.968 -6.752,-7.968 -4.96,0 -6.72,3.456 -6.72,7.968 0,4.512 1.76,7.968 6.72,7.968 4.96,0 6.752,-3.424 6.752,-7.968 z m -3.52,0 c 0,2.176 -0.16,6.624 -3.232,6.624 -3.04,0 -3.2,-4.448 -3.2,-6.624 0,-2.176 0.16,-6.624 3.2,-6.624 3.072,0 3.232,4.448 3.232,6.624 z"
         id="path2131" />
      <path
         d="m 814.08944,-579.33002 v -14.784 h -3.232 v 2.496 h -0.064 c -0.704,-1.728 -2.048,-2.848 -3.968,-2.848 -4.64,0 -5.728,3.904 -5.728,7.808 0,3.776 1.248,7.776 5.728,7.776 1.76,0 3.072,-0.576 3.968,-2.112 h 0.064 c 0,3.104 0.544,7.392 -3.776,7.392 -1.856,0 -3.36,-0.928 -4.896,-1.856 v 3.168 c 1.44,0.384 2.88,0.608 4.384,0.608 5.344,0 7.52,-2.464 7.52,-7.648 z m -3.328,-7.168 c 0,2.144 -0.128,5.76 -3.072,5.76 -2.784,0 -3.072,-3.904 -3.072,-5.92 0,-2.016 0.32,-5.76 3.072,-5.76 2.848,0 3.072,3.84 3.072,5.92 z"
         id="path2128" />
      <path
         d="m 827.01742,-591.10602 v -3.36 c -2.688,0.224 -3.84,2.016 -4.928,4.224 h -0.064 v -3.872 h -3.232 v 15.232 h 3.232 v -6.976 c 0,-3.616 1.408,-5.152 4.992,-5.248 z"
         id="path2125" />
      <path
         d="m 840.20142,-578.88202 v -9.824 c 0,-3.904 -1.152,-5.76 -5.376,-5.76 -3.392,0 -5.6,1.12 -5.856,4.672 h 3.392 c 0.096,-1.664 0.416,-3.328 2.464,-3.328 2.176,0 2.144,2.88 2.144,4.416 v 1.344 c -3.232,0.16 -8.512,0.736 -8.512,5.024 0,2.304 1.984,3.808 4.16,3.808 1.792,0 3.392,-0.928 4.288,-2.464 h 0.064 v 2.112 z m -3.232,-5.344 c 0,1.408 -0.64,2.688 -1.92,3.36 -0.352,0.192 -0.8,0.32 -1.216,0.32 -1.248,0 -1.856,-1.152 -1.856,-2.272 0,-2.56 3.008,-3.072 4.992,-3.2 z"
         id="path2122" />
      <path
         d="m 865.06543,-578.88202 v -10.336 c 0,-2.656 -0.64,-5.248 -3.84,-5.248 -2.528,0 -3.68,1.728 -4.608,3.776 h -0.064 c -0.128,-2.144 -1.536,-3.776 -3.776,-3.776 -2.304,0 -3.968,1.888 -4.608,3.968 h -0.064 v -3.616 h -3.232 v 15.232 h 3.232 v -6.304 c 0,-2.08 0.48,-6.88 3.328,-6.88 1.952,0 1.92,2.24 1.92,3.648 v 9.536 h 3.232 v -6.336 c 0,-2.048 0.608,-6.848 3.392,-6.848 1.792,0 1.856,2.048 1.856,3.36 v 9.824 z"
         id="path2119" />
      <path
         d="m 889.99341,-578.88202 v -10.336 c 0,-2.656 -0.64,-5.248 -3.84,-5.248 -2.528,0 -3.68,1.728 -4.608,3.776 h -0.064 c -0.128,-2.144 -1.536,-3.776 -3.776,-3.776 -2.304,0 -3.968,1.888 -4.608,3.968 h -0.064 v -3.616 h -3.232 v 15.232 h 3.232 v -6.304 c 0,-2.08 0.48,-6.88 3.328,-6.88 1.952,0 1.92,2.24 1.92,3.648 v 9.536 h 3.232 v -6.336 c 0,-2.048 0.608,-6.848 3.392,-6.848 1.792,0 1.856,2.048 1.856,3.36 v 9.824 z"
         id="path2116" />
      <path
         d="m 905.96139,-588.22602 c 0,-3.904 -1.728,-6.24 -5.856,-6.24 -4.672,0 -6.496,2.944 -6.496,7.296 0,4.96 2.336,8.64 7.616,8.64 1.664,0 2.912,-0.224 4.448,-0.864 v -1.472 c -0.928,0.416 -1.92,0.64 -2.912,0.64 -4.224,0 -5.92,-4.384 -5.92,-8 z m -3.168,-1.472 h -5.856 c 0.128,-1.76 1.088,-3.424 3.04,-3.424 2.016,0 2.816,1.632 2.816,3.424 z"
         id="path2113" />
      <path
         d="m 917.76937,-591.10602 v -3.36 c -2.688,0.224 -3.84,2.016 -4.928,4.224 h -0.064 v -3.872 h -3.232 v 15.232 h 3.232 v -6.976 c 0,-3.616 1.408,-5.152 4.992,-5.248 z"
         id="path2110" />
    </g>
    <g
       aria-label="for Machine Learning"
       transform="scale(1.0198039,-0.98058067)"
       id="text54"
       style="font-weight:bold;font-size:32px;font-family:'Rotis SemiSans Std';-inkscape-font-specification:'Rotis SemiSans Std, Bold';fill:#ffffff;stroke-width:0.980581">
      <path
         d="m 610.4415,-556.94201 v -2.208 c -1.056,-0.224 -2.144,-0.352 -3.232,-0.352 -4.096,0 -5.792,1.76 -5.792,5.76 v 1.44 h -2.656 v 1.664 h 2.656 v 13.568 h 3.232 v -13.568 h 4.32 v -1.664 h -4.32 c 0,-2.4 -0.384,-5.344 2.944,-5.344 1.088,0 1.856,0.288 2.848,0.704 z"
         id="path2107" />
      <path
         d="m 624.04149,-544.68601 c 0,-4.544 -1.792,-7.968 -6.752,-7.968 -4.96,0 -6.72,3.456 -6.72,7.968 0,4.512 1.76,7.968 6.72,7.968 4.96,0 6.752,-3.424 6.752,-7.968 z m -3.52,0 c 0,2.176 -0.16,6.624 -3.232,6.624 -3.04,0 -3.2,-4.448 -3.2,-6.624 0,-2.176 0.16,-6.624 3.2,-6.624 3.072,0 3.232,4.448 3.232,6.624 z"
         id="path2104" />
      <path
         d="m 635.91347,-549.29401 v -3.36 c -2.688,0.224 -3.84,2.016 -4.928,4.224 h -0.064 v -3.872 h -3.232 v 15.232 h 3.232 v -6.976 c 0,-3.616 1.408,-5.152 4.992,-5.248 z"
         id="path2101" />
      <path
         d="m 669.60945,-537.07001 v -22.08 h -4.544 l -6.144,17.952 h -0.064 l -6.112,-17.952 h -4.704 v 22.08 h 2.656 v -19.072 h 0.064 l 6.464,19.072 h 2.688 l 6.464,-19.072 h 0.064 v 19.072 z"
         id="path2098" />
      <path
         d="m 685.28943,-537.07001 v -9.824 c 0,-3.904 -1.152,-5.76 -5.376,-5.76 -3.392,0 -5.6,1.12 -5.856,4.672 h 3.392 c 0.096,-1.664 0.416,-3.328 2.464,-3.328 2.176,0 2.144,2.88 2.144,4.416 v 1.344 c -3.232,0.16 -8.512,0.736 -8.512,5.024 0,2.304 1.984,3.808 4.16,3.808 1.792,0 3.392,-0.928 4.288,-2.464 h 0.064 v 2.112 z m -3.232,-5.344 c 0,1.408 -0.64,2.688 -1.92,3.36 -0.352,0.192 -0.8,0.32 -1.216,0.32 -1.248,0 -1.856,-1.152 -1.856,-2.272 0,-2.56 3.008,-3.072 4.992,-3.2 z"
         id="path2095" />
      <path
         d="m 700.77744,-547.34201 c 0,-3.616 -1.888,-5.312 -5.472,-5.312 -4.608,0 -6.464,3.072 -6.464,7.36 0,5.056 2.272,8.576 7.648,8.576 1.376,0 2.752,-0.288 4.064,-0.768 v -1.504 c -0.864,0.352 -1.792,0.576 -2.72,0.576 -4.096,0 -5.472,-4.608 -5.472,-7.968 0,-1.728 0.48,-4.928 2.816,-4.928 2.112,0 2.208,2.4 2.208,3.968 z"
         id="path2092" />
      <path
         d="m 716.07346,-537.07001 v -11.136 c 0,-2.368 -1.28,-4.448 -3.84,-4.448 -2.624,0 -4.32,1.728 -5.344,3.968 h -0.064 v -10.464 h -3.232 v 22.08 h 3.232 v -6.304 c 0,-2.368 1.088,-6.88 4.096,-6.88 1.856,0 1.92,2.304 1.92,3.648 v 9.536 z"
         id="path2089" />
      <path
         d="m 724.32947,-555.95001 v -3.2 h -3.488 v 3.2 z m -0.128,18.88 v -15.232 h -3.232 v 15.232 z"
         id="path2086" />
      <path
         d="m 741.60947,-537.07001 v -11.136 c 0,-2.368 -1.28,-4.448 -3.84,-4.448 -2.624,0 -4.32,1.728 -5.344,3.968 h -0.064 v -3.616 h -3.232 v 15.232 h 3.232 v -6.304 c 0,-2.368 1.088,-6.88 4.096,-6.88 1.856,0 1.92,2.304 1.92,3.648 v 9.536 z"
         id="path2083" />
      <path
         d="m 757.57748,-546.41401 c 0,-3.904 -1.728,-6.24 -5.856,-6.24 -4.672,0 -6.496,2.944 -6.496,7.296 0,4.96 2.336,8.64 7.616,8.64 1.664,0 2.912,-0.224 4.448,-0.864 v -1.472 c -0.928,0.416 -1.92,0.64 -2.912,0.64 -4.224,0 -5.92,-4.384 -5.92,-8 z m -3.168,-1.472 h -5.856 c 0.128,-1.76 1.088,-3.424 3.04,-3.424 2.016,0 2.816,1.632 2.816,3.424 z"
         id="path2080" />
      <path
         d="m 781.92945,-537.07001 v -2.304 h -8.16 v -19.776 h -3.52 v 22.08 z"
         id="path2077" />
      <path
         d="m 795.52944,-546.41401 c 0,-3.904 -1.728,-6.24 -5.856,-6.24 -4.672,0 -6.496,2.944 -6.496,7.296 0,4.96 2.336,8.64 7.616,8.64 1.664,0 2.912,-0.224 4.448,-0.864 v -1.472 c -0.928,0.416 -1.92,0.64 -2.912,0.64 -4.224,0 -5.92,-4.384 -5.92,-8 z m -3.168,-1.472 h -5.856 c 0.128,-1.76 1.088,-3.424 3.04,-3.424 2.016,0 2.816,1.632 2.816,3.424 z"
         id="path2074" />
      <path
         d="m 809.86542,-537.07001 v -9.824 c 0,-3.904 -1.152,-5.76 -5.376,-5.76 -3.392,0 -5.6,1.12 -5.856,4.672 h 3.392 c 0.096,-1.664 0.416,-3.328 2.464,-3.328 2.176,0 2.144,2.88 2.144,4.416 v 1.344 c -3.232,0.16 -8.512,0.736 -8.512,5.024 0,2.304 1.984,3.808 4.16,3.808 1.792,0 3.392,-0.928 4.288,-2.464 h 0.064 v 2.112 z m -3.232,-5.344 c 0,1.408 -0.64,2.688 -1.92,3.36 -0.352,0.192 -0.8,0.32 -1.216,0.32 -1.248,0 -1.856,-1.152 -1.856,-2.272 0,-2.56 3.008,-3.072 4.992,-3.2 z"
         id="path2071" />
      <path
         d="m 822.76143,-549.29401 v -3.36 c -2.688,0.224 -3.84,2.016 -4.928,4.224 h -0.064 v -3.872 h -3.232 v 15.232 h 3.232 v -6.976 c 0,-3.616 1.408,-5.152 4.992,-5.248 z"
         id="path2068" />
      <path
         d="m 838.28141,-537.07001 v -11.136 c 0,-2.368 -1.28,-4.448 -3.84,-4.448 -2.624,0 -4.32,1.728 -5.344,3.968 h -0.064 v -3.616 h -3.232 v 15.232 h 3.232 v -6.304 c 0,-2.368 1.088,-6.88 4.096,-6.88 1.856,0 1.92,2.304 1.92,3.648 v 9.536 z"
         id="path2065" />
      <path
         d="m 846.53741,-555.95001 v -3.2 h -3.488 v 3.2 z m -0.128,18.88 v -15.232 h -3.232 v 15.232 z"
         id="path2062" />
      <path
         d="m 863.81742,-537.07001 v -11.136 c 0,-2.368 -1.28,-4.448 -3.84,-4.448 -2.624,0 -4.32,1.728 -5.344,3.968 h -0.064 v -3.616 h -3.232 v 15.232 h 3.232 v -6.304 c 0,-2.368 1.088,-6.88 4.096,-6.88 1.856,0 1.92,2.304 1.92,3.648 v 9.536 z"
         id="path2059" />
      <path
         d="m 880.45742,-537.51801 v -14.784 h -3.232 v 2.496 h -0.064 c -0.704,-1.728 -2.048,-2.848 -3.968,-2.848 -4.64,0 -5.728,3.904 -5.728,7.808 0,3.776 1.248,7.776 5.728,7.776 1.76,0 3.072,-0.576 3.968,-2.112 h 0.064 c 0,3.104 0.544,7.392 -3.776,7.392 -1.856,0 -3.36,-0.928 -4.896,-1.856 v 3.168 c 1.44,0.384 2.88,0.608 4.384,0.608 5.344,0 7.52,-2.464 7.52,-7.648 z m -3.328,-7.168 c 0,2.144 -0.128,5.76 -3.072,5.76 -2.784,0 -3.072,-3.904 -3.072,-5.92 0,-2.016 0.32,-5.76 3.072,-5.76 2.848,0 3.072,3.84 3.072,5.92 z"
         id="path2056" />
    </g>
    <g
       aria-label="Engineering Analytics and Data Science Solutions"
       transform="scale(1,-1)"
       id="text58"
       style="font-size:18.9379px;font-family:'Rotis Semi Sans Std';-inkscape-font-specification:RotisSemiSansStd;fill:#ffffff">
      <path
         d="m 588.74885,-495.82693 v -1.11734 H 583.825 v -5.17005 h 4.48828 v -1.07946 H 583.825 v -4.65872 h 4.73448 v -1.04159 h -6.30633 v 13.06716 z"
         id="path2053" />
      <path
         d="m 597.15731,-495.82693 v -6.85552 c 0,-1.00371 -0.58708,-2.36724 -2.15893,-2.36724 -1.78016,0 -2.68918,1.28777 -3.23838,2.42405 h -0.0379 v -2.21574 h -1.36353 v 9.01445 h 1.4014 v -3.86334 c 0,-1.74228 0.85221,-4.20421 2.746,-4.20421 1.2499,0 1.2499,1.26884 1.2499,2.23467 v 5.83288 z"
         id="path2050" />
      <path
         d="m 606.07704,-495.77012 v -9.07126 h -1.4014 v 1.70442 h -0.0379 c -0.24619,-0.58708 -0.75751,-1.91273 -2.48086,-1.91273 -2.17786,0 -3.20051,2.00742 -3.20051,4.52616 0,2.51874 0.96584,4.6966 3.25732,4.6966 1.59079,0 2.29149,-1.23097 2.42405,-1.81804 h 0.0379 v 1.78016 c 0,0.66283 0,3.049 -2.46193,3.049 -1.06052,0 -1.85591,-0.41663 -2.63237,-0.8522 v 1.5529 c 0.58708,0.18938 1.38247,0.34089 2.3483,0.34089 2.746,0 4.1474,-1.24991 4.1474,-3.9959 z m -1.4014,-4.67766 c 0,1.68547 -0.64389,3.71183 -2.17786,3.71183 -1.49609,0 -1.96954,-2.15892 -1.96954,-3.71183 0,-1.57185 0.45451,-3.69289 1.9506,-3.69289 1.59079,0 2.1968,2.08317 2.1968,3.69289 z"
         id="path2047" />
      <path
         d="m 610.1108,-507.18968 v -1.70441 h -1.59078 v 1.70441 z m -0.0947,11.36275 v -9.01445 h -1.4014 v 9.01445 z"
         id="path2044" />
      <path
         d="m 619.33357,-495.82693 v -6.85552 c 0,-1.00371 -0.58707,-2.36724 -2.15892,-2.36724 -1.78016,0 -2.68918,1.28777 -3.23838,2.42405 h -0.0379 v -2.21574 h -1.36353 v 9.01445 h 1.4014 v -3.86334 c 0,-1.74228 0.85221,-4.20421 2.746,-4.20421 1.2499,0 1.2499,1.26884 1.2499,2.23467 v 5.83288 z"
         id="path2041" />
      <path
         d="m 627.98824,-501.41362 c 0,-0.73857 0,-3.63607 -3.2005,-3.63607 -2.63237,0 -3.65502,1.87485 -3.65502,4.4504 0,3.31414 1.76123,4.98067 4.45041,4.98067 1.02265,0 1.49609,-0.1515 2.23467,-0.35982 v -0.81433 c -0.53026,0.13257 -0.83327,0.26513 -1.6476,0.26513 -2.78387,0 -3.46563,-2.8975 -3.46563,-4.88598 z m -1.45822,-0.83326 h -3.78758 c 0,-0.49239 0.34089,-2.0453 1.95061,-2.0453 1.60972,0 1.83697,1.26884 1.83697,2.0453 z"
         id="path2038" />
      <path
         d="m 635.92318,-501.41362 c 0,-0.73857 0,-3.63607 -3.20051,-3.63607 -2.63236,0 -3.65501,1.87485 -3.65501,4.4504 0,3.31414 1.76122,4.98067 4.45041,4.98067 1.02264,0 1.49609,-0.1515 2.23467,-0.35982 v -0.81433 c -0.53026,0.13257 -0.83327,0.26513 -1.6476,0.26513 -2.78387,0 -3.46563,-2.8975 -3.46563,-4.88598 z m -1.45822,-0.83326 h -3.78758 c 0,-0.49239 0.34088,-2.0453 1.9506,-2.0453 1.60973,0 1.83698,1.26884 1.83698,2.0453 z"
         id="path2035" />
      <path
         d="m 642.00226,-503.4021 v -1.64759 c -1.45822,0 -2.46192,1.36353 -2.8975,2.3483 h -0.0379 v -2.13999 h -1.40141 v 9.01445 h 1.40141 v -4.26103 c 0,-1.6476 0.56814,-3.31414 2.53768,-3.31414 z"
         id="path2032" />
      <path
         d="m 644.99447,-507.18968 v -1.70441 h -1.59078 v 1.70441 z m -0.0947,11.36275 v -9.01445 h -1.4014 v 9.01445 z"
         id="path2029" />
      <path
         d="m 654.21718,-495.82693 v -6.85552 c 0,-1.00371 -0.58707,-2.36724 -2.15892,-2.36724 -1.78016,0 -2.68918,1.28777 -3.23838,2.42405 h -0.0379 v -2.21574 h -1.36353 v 9.01445 h 1.40141 v -3.86334 c 0,-1.74228 0.8522,-4.20421 2.74599,-4.20421 1.24991,0 1.24991,1.26884 1.24991,2.23467 v 5.83288 z"
         id="path2026" />
      <path
         d="m 663.13692,-495.77012 v -9.07126 h -1.40141 v 1.70442 h -0.0379 c -0.24619,-0.58708 -0.75752,-1.91273 -2.48087,-1.91273 -2.17786,0 -3.2005,2.00742 -3.2005,4.52616 0,2.51874 0.96583,4.6966 3.25732,4.6966 1.59078,0 2.29148,-1.23097 2.42405,-1.81804 h 0.0379 v 1.78016 c 0,0.66283 0,3.049 -2.46192,3.049 -1.06053,0 -1.85592,-0.41663 -2.63237,-0.8522 v 1.5529 c 0.58707,0.18938 1.38247,0.34089 2.3483,0.34089 2.74599,0 4.1474,-1.24991 4.1474,-3.9959 z m -1.40141,-4.67766 c 0,1.68547 -0.64388,3.71183 -2.17785,3.71183 -1.4961,0 -1.96955,-2.15892 -1.96955,-3.71183 0,-1.57185 0.45451,-3.69289 1.95061,-3.69289 1.59078,0 2.19679,2.08317 2.19679,3.69289 z"
         id="path2023" />
      <path
         d="m 679.13943,-495.82693 -4.41253,-13.06716 h -1.72335 l -4.39359,13.06716 h 1.42034 l 1.32565,-4.12847 h 4.81023 l 1.34459,4.12847 z m -3.31413,-5.17005 h -4.1474 l 2.06423,-6.41995 h 0.0379 z"
         id="path2020" />
      <path
         d="m 687.07448,-495.82693 v -6.85552 c 0,-1.00371 -0.58707,-2.36724 -2.15892,-2.36724 -1.78016,0 -2.68918,1.28777 -3.23838,2.42405 h -0.0379 v -2.21574 h -1.36353 v 9.01445 h 1.40141 v -3.86334 c 0,-1.74228 0.8522,-4.20421 2.74599,-4.20421 1.24991,0 1.24991,1.26884 1.24991,2.23467 v 5.83288 z"
         id="path2017" />
      <path
         d="m 695.29346,-495.82693 v -6.21164 c 0,-1.28777 -0.30301,-3.01112 -2.95432,-3.01112 -2.63237,0 -3.18156,1.45822 -3.27625,2.55661 h 1.62866 c 0.0568,-0.68176 0.1515,-1.7991 1.59078,-1.7991 1.49609,0 1.60972,1.36353 1.60972,2.32937 v 1.19308 c -1.68547,0.0947 -5.07536,0.22726 -5.07536,2.87856 0,1.21203 0.98477,2.27255 2.44299,2.27255 1.4961,0 2.32936,-1.04158 2.59449,-1.47715 h 0.0379 v 1.26884 z m -1.40141,-3.20051 c 0,1.4014 -1.00371,2.46193 -2.13998,2.46193 -0.81433,0 -1.42034,-0.5492 -1.42034,-1.51503 0,-1.93167 3.06794,-1.8938 3.56032,-1.93167 z"
         id="path2014" />
      <path
         d="m 699.19469,-495.82693 v -13.06716 h -1.40141 v 13.06716 z"
         id="path2011" />
      <path
         d="m 708.53108,-504.84138 h -1.42034 l -2.46193,7.08278 -2.74599,-7.08278 h -1.57185 l 3.57927,9.07126 -1.23097,3.56032 h 1.26884 z"
         id="path2008" />
      <path
         d="m 714.1556,-503.97023 v -0.87115 h -2.46192 v -2.97325 l -1.40141,0.85221 v 2.12104 h -1.59078 v 0.87115 h 1.59078 v 6.07906 c 0,1.62866 0.83327,2.27255 2.68918,2.27255 0.37876,0 0.66283,0 1.11734,-0.0757 v -0.94689 c -0.17044,0.0568 -0.37876,0.11362 -0.85221,0.11362 -1.5529,0 -1.5529,-1.04158 -1.5529,-2.1021 v -5.34049 z"
         id="path2005" />
      <path
         d="m 717.09103,-507.18968 v -1.70441 h -1.59079 v 1.70441 z m -0.0947,11.36275 v -9.01445 h -1.40141 v 9.01445 z"
         id="path2002" />
      <path
         d="m 725.63197,-502.0575 c 0,-1.62866 -0.87114,-2.99219 -3.10581,-2.99219 -2.21574,0 -3.67395,1.47715 -3.67395,4.43147 0,2.82174 1.13627,4.9996 4.50722,4.9996 0.79539,0 1.36352,-0.11363 2.02635,-0.32194 v -0.83327 c -0.51132,0.13257 -0.79539,0.24619 -1.53397,0.24619 -2.61343,0 -3.42776,-2.4998 -3.42776,-4.43147 0,-1.49609 0.41664,-3.33307 2.00742,-3.33307 1.57184,0 1.57184,1.51504 1.57184,2.23468 z"
         id="path1999" />
      <path
         d="m 731.84359,-498.28886 c 0,-1.26884 -0.68177,-1.89379 -1.55291,-2.40512 -1.57185,-0.94689 -2.87856,-1.2499 -2.87856,-2.32936 0,-0.73858 0.73858,-1.07946 1.55291,-1.07946 1.06052,0 1.98848,0.5492 2.29148,0.71964 v -1.34459 c -0.35982,-0.0757 -1.15521,-0.32194 -2.10211,-0.32194 -2.04529,0 -3.08687,0.90902 -3.08687,2.46192 0,1.53397 1.30671,2.00742 2.44299,2.67025 1.06052,0.62495 1.93166,0.98477 1.93166,1.89379 0,1.02265 -0.8522,1.45822 -1.89379,1.45822 -1.17415,0 -2.32936,-0.73858 -2.51874,-0.85221 v 1.42034 c 0.43557,0.17045 1.21203,0.37876 2.44299,0.37876 2.36724,0 3.37095,-1.26884 3.37095,-2.67024 z"
         id="path1996" />
      <path
         d="m 743.22534,-495.82693 v -6.21164 c 0,-1.28777 -0.30301,-3.01112 -2.95431,-3.01112 -2.63237,0 -3.18157,1.45822 -3.27626,2.55661 h 1.62866 c 0.0568,-0.68176 0.1515,-1.7991 1.59078,-1.7991 1.4961,0 1.60973,1.36353 1.60973,2.32937 v 1.19308 c -1.68548,0.0947 -5.07536,0.22726 -5.07536,2.87856 0,1.21203 0.98477,2.27255 2.44299,2.27255 1.49609,0 2.32936,-1.04158 2.59449,-1.47715 h 0.0379 v 1.26884 z m -1.4014,-3.20051 c 0,1.4014 -1.00371,2.46193 -2.13999,2.46193 -0.81433,0 -1.42034,-0.5492 -1.42034,-1.51503 0,-1.93167 3.06794,-1.8938 3.56033,-1.93167 z"
         id="path1993" />
      <path
         d="m 752.467,-495.82693 v -6.85552 c 0,-1.00371 -0.58708,-2.36724 -2.15892,-2.36724 -1.78017,0 -2.68918,1.28777 -3.23838,2.42405 h -0.0379 v -2.21574 h -1.36353 v 9.01445 h 1.40141 v -3.86334 c 0,-1.74228 0.8522,-4.20421 2.74599,-4.20421 1.2499,0 1.2499,1.26884 1.2499,2.23467 v 5.83288 z"
         id="path1990" />
      <path
         d="m 761.38674,-495.82693 v -13.06716 h -1.40141 v 5.66244 h -0.0379 c -0.20832,-0.5492 -0.73858,-1.81804 -2.42406,-1.81804 -2.27254,0 -3.23838,2.15892 -3.23838,4.73447 0,2.40512 0.62495,4.6966 3.049,4.6966 1.66654,0 2.42406,-1.34459 2.61344,-1.9506 h 0.0379 v 1.74229 z m -1.40141,-4.67767 c 0,2.25361 -0.92796,3.93909 -2.32936,3.93909 -1.43928,0 -1.7991,-1.89379 -1.7991,-3.65502 0,-1.89379 0.43557,-3.92014 1.91273,-3.92014 1.68547,0 2.21573,2.57555 2.21573,3.63607 z"
         id="path1987" />
      <path
         d="m 776.95367,-502.43626 c 0,-4.94279 -2.13998,-6.45783 -6.28738,-6.45783 h -2.36724 v 13.06716 h 2.15892 c 3.97696,0 6.4957,-0.98478 6.4957,-6.60933 z m -1.68547,0.18938 c 0,3.71183 -1.15521,5.30261 -4.41253,5.30261 h -0.98477 v -10.90823 h 0.98477 c 2.93537,0 4.41253,1.02264 4.41253,5.60562 z"
         id="path1984" />
      <path
         d="m 784.62353,-495.82693 v -6.21164 c 0,-1.28777 -0.303,-3.01112 -2.95431,-3.01112 -2.63237,0 -3.18157,1.45822 -3.27626,2.55661 h 1.62866 c 0.0568,-0.68176 0.15151,-1.7991 1.59079,-1.7991 1.49609,0 1.60972,1.36353 1.60972,2.32937 v 1.19308 c -1.68547,0.0947 -5.07536,0.22726 -5.07536,2.87856 0,1.21203 0.98477,2.27255 2.44299,2.27255 1.49609,0 2.32936,-1.04158 2.59449,-1.47715 h 0.0379 v 1.26884 z m -1.4014,-3.20051 c 0,1.4014 -1.00371,2.46193 -2.13998,2.46193 -0.81433,0 -1.42035,-0.5492 -1.42035,-1.51503 0,-1.93167 3.06794,-1.8938 3.56033,-1.93167 z"
         id="path1981" />
      <path
         d="m 791.63058,-503.97023 v -0.87115 h -2.46193 v -2.97325 l -1.4014,0.85221 v 2.12104 h -1.59079 v 0.87115 h 1.59079 v 6.07906 c 0,1.62866 0.83327,2.27255 2.68918,2.27255 0.37876,0 0.66283,0 1.11734,-0.0757 v -0.94689 c -0.17045,0.0568 -0.37876,0.11362 -0.85221,0.11362 -1.55291,0 -1.55291,-1.04158 -1.55291,-2.1021 v -5.34049 z"
         id="path1978" />
      <path
         d="m 798.75116,-495.82693 v -6.21164 c 0,-1.28777 -0.30301,-3.01112 -2.95431,-3.01112 -2.63237,0 -3.18157,1.45822 -3.27626,2.55661 h 1.62866 c 0.0568,-0.68176 0.1515,-1.7991 1.59078,-1.7991 1.4961,0 1.60972,1.36353 1.60972,2.32937 v 1.19308 c -1.68547,0.0947 -5.07535,0.22726 -5.07535,2.87856 0,1.21203 0.98477,2.27255 2.44298,2.27255 1.4961,0 2.32937,-1.04158 2.5945,-1.47715 h 0.0379 v 1.26884 z m -1.40141,-3.20051 c 0,1.4014 -1.00371,2.46193 -2.13998,2.46193 -0.81433,0 -1.42034,-0.5492 -1.42034,-1.51503 0,-1.93167 3.06794,-1.8938 3.56032,-1.93167 z"
         id="path1975" />
      <path
         d="m 812.55691,-499.33045 c 0,-1.70441 -0.70071,-2.31042 -2.12105,-3.25732 -1.72335,-1.13627 -4.1474,-1.66653 -4.1474,-3.56032 0,-1.11734 0.92796,-1.91273 2.29149,-1.91273 1.26884,0 2.53768,0.53026 3.12475,0.79539 v -1.51503 c -0.53026,-0.11363 -1.7991,-0.32194 -2.82175,-0.32194 -2.4998,0 -4.10952,1.19308 -4.10952,3.29519 0,1.72335 1.02265,2.61343 2.17786,3.23838 1.93166,1.06053 3.92014,1.70441 3.92014,3.54139 0,1.49609 -1.04158,2.29149 -2.68918,2.29149 -1.26884,0 -2.59449,-0.58708 -3.27626,-0.90902 v 1.62866 c 0.32195,0.0947 1.4961,0.39769 3.03007,0.39769 2.57555,0 4.62085,-1.13627 4.62085,-3.71183 z"
         id="path1972" />
      <path
         d="m 820.22682,-502.0575 c 0,-1.62866 -0.87114,-2.99219 -3.10581,-2.99219 -2.21574,0 -3.67396,1.47715 -3.67396,4.43147 0,2.82174 1.13628,4.9996 4.50722,4.9996 0.7954,0 1.36353,-0.11363 2.02636,-0.32194 v -0.83327 c -0.51132,0.13257 -0.79539,0.24619 -1.53397,0.24619 -2.61343,0 -3.42776,-2.4998 -3.42776,-4.43147 0,-1.49609 0.41663,-3.33307 2.00742,-3.33307 1.57184,0 1.57184,1.51504 1.57184,2.23468 z"
         id="path1969" />
      <path
         d="m 823.18112,-507.18968 v -1.70441 h -1.59079 v 1.70441 z m -0.0947,11.36275 v -9.01445 h -1.40141 v 9.01445 z"
         id="path1966" />
      <path
         d="m 831.79781,-501.41362 c 0,-0.73857 0,-3.63607 -3.2005,-3.63607 -2.63237,0 -3.65502,1.87485 -3.65502,4.4504 0,3.31414 1.76123,4.98067 4.45041,4.98067 1.02265,0 1.49609,-0.1515 2.23467,-0.35982 v -0.81433 c -0.53026,0.13257 -0.83327,0.26513 -1.6476,0.26513 -2.78387,0 -3.46563,-2.8975 -3.46563,-4.88598 z m -1.45821,-0.83326 h -3.78759 c 0,-0.49239 0.34089,-2.0453 1.95061,-2.0453 1.60972,0 1.83698,1.26884 1.83698,2.0453 z"
         id="path1963" />
      <path
         d="m 840.33882,-495.82693 v -6.85552 c 0,-1.00371 -0.58707,-2.36724 -2.15892,-2.36724 -1.78016,0 -2.68918,1.28777 -3.23838,2.42405 h -0.0379 v -2.21574 h -1.36353 v 9.01445 h 1.4014 v -3.86334 c 0,-1.74228 0.85221,-4.20421 2.746,-4.20421 1.2499,0 1.2499,1.26884 1.2499,2.23467 v 5.83288 z"
         id="path1960" />
      <path
         d="m 848.91768,-502.0575 c 0,-1.62866 -0.87114,-2.99219 -3.10582,-2.99219 -2.21573,0 -3.67395,1.47715 -3.67395,4.43147 0,2.82174 1.13628,4.9996 4.50722,4.9996 0.79539,0 1.36353,-0.11363 2.02636,-0.32194 v -0.83327 c -0.51133,0.13257 -0.7954,0.24619 -1.53397,0.24619 -2.61343,0 -3.42776,-2.4998 -3.42776,-4.43147 0,-1.49609 0.41663,-3.33307 2.00741,-3.33307 1.57185,0 1.57185,1.51504 1.57185,2.23468 z"
         id="path1957" />
      <path
         d="m 856.49282,-501.41362 c 0,-0.73857 0,-3.63607 -3.2005,-3.63607 -2.63237,0 -3.65502,1.87485 -3.65502,4.4504 0,3.31414 1.76123,4.98067 4.45041,4.98067 1.02264,0 1.49609,-0.1515 2.23467,-0.35982 v -0.81433 c -0.53026,0.13257 -0.83327,0.26513 -1.6476,0.26513 -2.78387,0 -3.46563,-2.8975 -3.46563,-4.88598 z m -1.45822,-0.83326 h -3.78758 c 0,-0.49239 0.34088,-2.0453 1.95061,-2.0453 1.60972,0 1.83697,1.26884 1.83697,2.0453 z"
         id="path1954" />
      <path
         d="m 869.59786,-499.33045 c 0,-1.70441 -0.7007,-2.31042 -2.12104,-3.25732 -1.72335,-1.13627 -4.1474,-1.66653 -4.1474,-3.56032 0,-1.11734 0.92795,-1.91273 2.29148,-1.91273 1.26884,0 2.53768,0.53026 3.12476,0.79539 v -1.51503 c -0.53027,-0.11363 -1.79911,-0.32194 -2.82175,-0.32194 -2.4998,0 -4.10953,1.19308 -4.10953,3.29519 0,1.72335 1.02265,2.61343 2.17786,3.23838 1.93167,1.06053 3.92015,1.70441 3.92015,3.54139 0,1.49609 -1.04159,2.29149 -2.68918,2.29149 -1.26884,0 -2.5945,-0.58708 -3.27626,-0.90902 v 1.62866 c 0.32194,0.0947 1.49609,0.39769 3.03006,0.39769 2.57556,0 4.62085,-1.13627 4.62085,-3.71183 z"
         id="path1951" />
      <path
         d="m 878.25249,-500.23947 c 0,-2.87856 -1.23097,-4.81022 -3.92015,-4.81022 -2.68918,0 -3.82545,1.93166 -3.82545,4.81022 0,2.91644 1.13627,4.62085 3.82545,4.62085 2.68918,0 3.92015,-1.70441 3.92015,-4.62085 z m -1.57185,0.0568 c 0,1.85591 -0.39769,3.80652 -2.3483,3.80652 -1.93166,0 -2.25361,-1.95061 -2.25361,-3.80652 0,-1.96954 0.32195,-4.10953 2.25361,-4.10953 1.95061,0 2.3483,2.13999 2.3483,4.10953 z"
         id="path1948" />
      <path
         d="m 881.52873,-495.82693 v -13.06716 h -1.4014 v 13.06716 z"
         id="path1945" />
      <path
         d="m 890.78938,-495.82693 v -9.01445 h -1.40141 v 3.86334 c 0,1.74228 -0.73857,4.20421 -2.38617,4.20421 -1.21203,0 -1.60972,-1.26884 -1.60972,-2.23467 v -5.83288 h -1.40141 v 6.43889 c 0,1.17415 0.66283,2.78387 2.15892,2.78387 1.7991,0 2.36724,-0.5492 3.23838,-2.40511 h 0.0379 v 2.1968 z"
         id="path1942" />
      <path
         d="m 897.89108,-503.97023 v -0.87115 h -2.46193 v -2.97325 l -1.4014,0.85221 v 2.12104 h -1.59079 v 0.87115 h 1.59079 v 6.07906 c 0,1.62866 0.83326,2.27255 2.68918,2.27255 0.37876,0 0.66282,0 1.11733,-0.0757 v -0.94689 c -0.17044,0.0568 -0.37875,0.11362 -0.8522,0.11362 -1.55291,0 -1.55291,-1.04158 -1.55291,-2.1021 v -5.34049 z"
         id="path1939" />
      <path
         d="m 900.82644,-507.18968 v -1.70441 h -1.59078 v 1.70441 z m -0.0947,11.36275 v -9.01445 h -1.4014 v 9.01445 z"
         id="path1936" />
      <path
         d="m 910.35222,-500.23947 c 0,-2.87856 -1.23097,-4.81022 -3.92015,-4.81022 -2.68918,0 -3.82545,1.93166 -3.82545,4.81022 0,2.91644 1.13627,4.62085 3.82545,4.62085 2.68918,0 3.92015,-1.70441 3.92015,-4.62085 z m -1.57185,0.0568 c 0,1.85591 -0.39769,3.80652 -2.3483,3.80652 -1.93166,0 -2.25361,-1.95061 -2.25361,-3.80652 0,-1.96954 0.32195,-4.10953 2.25361,-4.10953 1.95061,0 2.3483,2.13999 2.3483,4.10953 z"
         id="path1933" />
      <path
         d="m 918.96895,-495.82693 v -6.85552 c 0,-1.00371 -0.58707,-2.36724 -2.15892,-2.36724 -1.78016,0 -2.68918,1.28777 -3.23838,2.42405 h -0.0379 v -2.21574 h -1.36353 v 9.01445 h 1.40141 v -3.86334 c 0,-1.74228 0.8522,-4.20421 2.74599,-4.20421 1.24991,0 1.24991,1.26884 1.24991,2.23467 v 5.83288 z"
         id="path1930" />
      <path
         d="m 926.26003,-498.28886 c 0,-1.26884 -0.68177,-1.89379 -1.55291,-2.40512 -1.57184,-0.94689 -2.87856,-1.2499 -2.87856,-2.32936 0,-0.73858 0.73858,-1.07946 1.55291,-1.07946 1.06052,0 1.98848,0.5492 2.29148,0.71964 v -1.34459 c -0.35982,-0.0757 -1.15521,-0.32194 -2.1021,-0.32194 -2.0453,0 -3.08688,0.90902 -3.08688,2.46192 0,1.53397 1.30671,2.00742 2.44299,2.67025 1.06052,0.62495 1.93166,0.98477 1.93166,1.89379 0,1.02265 -0.8522,1.45822 -1.89379,1.45822 -1.17415,0 -2.32936,-0.73858 -2.51874,-0.85221 v 1.42034 c 0.43558,0.17045 1.21203,0.37876 2.44299,0.37876 2.36724,0 3.37095,-1.26884 3.37095,-2.67024 z"
         id="path1927" />
    </g>
    <g
       aria-label="Marco Scutari "
       transform="scale(1,-1)"
       id="text62"
       style="font-weight:bold;font-size:19.5734px;font-family:'Rotis Semi Sans Std';-inkscape-font-specification:RotisSemiSansStd-Bold;fill:#ffffff">
      <path
         d="m 711.82152,-424.4014 v -13.50564 h -2.77943 l -3.75809,10.98067 h -0.0391 l -3.73852,-10.98067 h -2.87729 v 13.50564 h 1.6246 v -11.66574 h 0.0391 l 3.95383,11.66574 h 1.64417 l 3.95382,-11.66574 h 0.0391 v 11.66574 z"
         id="path1924" />
      <path
         d="m 721.41242,-424.4014 v -6.00903 c 0,-2.38796 -0.70464,-3.52321 -3.28833,-3.52321 -2.07478,0 -3.42534,0.68507 -3.58193,2.85771 h 2.07478 c 0.0587,-1.01781 0.25445,-2.03563 1.50715,-2.03563 1.33099,0 1.31142,1.76161 1.31142,2.70113 v 0.82208 c -1.97691,0.0979 -5.20652,0.45019 -5.20652,3.07303 0,1.40928 1.21355,2.32923 2.54454,2.32923 1.09611,0 2.07478,-0.56763 2.62283,-1.50715 h 0.0392 v 1.29184 z m -1.97691,-3.26876 c 0,0.86123 -0.39147,1.64417 -1.1744,2.05521 -0.21531,0.11744 -0.48934,0.19574 -0.74379,0.19574 -0.76337,0 -1.13526,-0.70465 -1.13526,-1.38972 0,-1.56587 1.8399,-1.87904 3.05345,-1.95734 z"
         id="path1921" />
      <path
         d="m 729.30051,-431.87844 v -2.0552 c -1.64416,0.13701 -2.34881,1.23312 -3.0143,2.58369 h -0.0391 v -2.36839 h -1.97691 v 9.31694 h 1.97691 v -4.267 c 0,-2.21179 0.86123,-3.15132 3.05345,-3.21004 z"
         id="path1918" />
      <path
         d="m 737.4039,-430.68446 c 0,-2.21179 -1.15483,-3.24918 -3.34705,-3.24918 -2.81857,0 -3.95383,1.87904 -3.95383,4.50188 0,3.0926 1.38971,5.24567 4.67805,5.24567 0.84165,0 1.68331,-0.17616 2.48582,-0.46976 v -0.91995 c -0.52848,0.21531 -1.09611,0.35232 -1.66374,0.35232 -2.5054,0 -3.34705,-2.81857 -3.34705,-4.87378 0,-1.05696 0.2936,-3.0143 1.72246,-3.0143 1.29184,0 1.35056,1.468 1.35056,2.4271 z"
         id="path1915" />
      <path
         d="m 746.70126,-429.05987 c 0,-2.77942 -1.09612,-4.87377 -4.12999,-4.87377 -3.03388,0 -4.11042,2.11392 -4.11042,4.87377 0,2.75985 1.07654,4.87378 4.11042,4.87378 3.03387,0 4.12999,-2.09435 4.12999,-4.87378 z m -2.15308,0 c 0,1.33099 -0.0979,4.0517 -1.97691,4.0517 -1.85948,0 -1.95734,-2.72071 -1.95734,-4.0517 0,-1.33099 0.0979,-4.05169 1.95734,-4.05169 1.87904,0 1.97691,2.7207 1.97691,4.05169 z"
         id="path1912" />
      <path
         d="m 762.22296,-428.13992 c 0,-4.22785 -6.36135,-4.14956 -6.36135,-6.9877 0,-1.13526 0.99824,-1.70289 2.03563,-1.70289 1.09611,0 2.38796,0.39147 3.34705,0.91995 v -1.85947 c -1.01781,-0.19573 -2.07478,-0.35232 -3.11217,-0.35232 -2.25094,0 -4.42359,0.8808 -4.42359,3.46449 0,4.20828 6.36136,4.01255 6.36136,7.10514 0,1.44844 -1.13526,1.95734 -2.4271,1.95734 -1.29185,0 -2.66198,-0.54805 -3.7581,-1.19397 v 2.09435 c 0.91995,0.33275 2.46625,0.50891 3.42535,0.50891 2.58369,0 4.91292,-1.01782 4.91292,-3.95383 z"
         id="path1909" />
      <path
         d="m 770.79611,-430.68446 c 0,-2.21179 -1.15483,-3.24918 -3.34705,-3.24918 -2.81857,0 -3.95382,1.87904 -3.95382,4.50188 0,3.0926 1.38971,5.24567 4.67804,5.24567 0.84165,0 1.68331,-0.17616 2.48582,-0.46976 v -0.91995 c -0.52848,0.21531 -1.09611,0.35232 -1.66374,0.35232 -2.50539,0 -3.34705,-2.81857 -3.34705,-4.87378 0,-1.05696 0.2936,-3.0143 1.72246,-3.0143 1.29184,0 1.35056,1.468 1.35056,2.4271 z"
         id="path1906" />
      <path
         d="m 780.15225,-424.4014 v -9.31694 h -1.97692 v 3.85596 c 0,1.44844 -0.66549,4.20828 -2.50539,4.20828 -1.13526,0 -1.1744,-1.40928 -1.1744,-2.23136 v -5.83288 h -1.97692 v 6.81155 c 0,1.44843 0.78294,2.7207 2.34881,2.7207 1.60502,0 2.62284,-1.05696 3.24918,-2.4271 h 0.0391 v 2.21179 z"
         id="path1903" />
      <path
         d="m 788.15774,-432.70052 v -1.01782 h -2.54455 v -3.38619 l -1.97691,1.19397 v 2.19222 h -1.48758 v 1.01782 h 1.48758 v 6.14605 c 0,1.91819 1.23312,2.36838 2.93601,2.36838 0.45019,0 0.91995,-0.0196 1.37014,-0.13701 v -1.13526 c -0.2936,0.11744 -0.60678,0.15659 -0.91995,0.15659 -1.38971,0 -1.40929,-0.90038 -1.40929,-2.03564 v -5.36311 z"
         id="path1900" />
      <path
         d="m 796.49604,-424.4014 v -6.00903 c 0,-2.38796 -0.70464,-3.52321 -3.28833,-3.52321 -2.07478,0 -3.42534,0.68507 -3.58193,2.85771 h 2.07478 c 0.0587,-1.01781 0.25445,-2.03563 1.50715,-2.03563 1.33099,0 1.31142,1.76161 1.31142,2.70113 v 0.82208 c -1.97692,0.0979 -5.20653,0.45019 -5.20653,3.07303 0,1.40928 1.21355,2.32923 2.54455,2.32923 1.09611,0 2.07478,-0.56763 2.62283,-1.50715 h 0.0392 v 1.29184 z m -1.97691,-3.26876 c 0,0.86123 -0.39147,1.64417 -1.17441,2.05521 -0.2153,0.11744 -0.48933,0.19574 -0.74379,0.19574 -0.76336,0 -1.13525,-0.70465 -1.13525,-1.38972 0,-1.56587 1.8399,-1.87904 3.05345,-1.95734 z"
         id="path1897" />
      <path
         d="m 804.38413,-431.87844 v -2.0552 c -1.64417,0.13701 -2.34881,1.23312 -3.0143,2.58369 h -0.0391 v -2.36839 h -1.97691 v 9.31694 h 1.97691 v -4.267 c 0,-2.21179 0.86123,-3.15132 3.05345,-3.21004 z"
         id="path1894" />
      <path
         d="m 808.39661,-435.9497 v -1.95734 h -2.1335 v 1.95734 z m -0.0783,11.5483 v -9.31694 h -1.97692 v 9.31694 z"
         id="path1891" />
    </g>
    <g
       aria-label="Mauro Malvestio"
       transform="scale(1,-1)"
       id="text70"
       style="font-weight:bold;font-size:19.5734px;font-family:'Rotis Semi Sans Std';-inkscape-font-specification:RotisSemiSansStd-Bold;fill:#ffffff">
      <path
         d="m 700.4395,-401.9014 v -13.50564 h -2.77943 l -3.75809,10.98067 h -0.0391 l -3.73852,-10.98067 h -2.87729 v 13.50564 h 1.6246 v -11.66574 h 0.0391 l 3.95383,11.66574 h 1.64417 l 3.95382,-11.66574 h 0.0391 v 11.66574 z"
         id="path1888" />
      <path
         d="m 710.03047,-401.9014 v -6.00903 c 0,-2.38796 -0.70465,-3.52321 -3.28834,-3.52321 -2.07478,0 -3.42534,0.68507 -3.58193,2.85771 h 2.07478 c 0.0587,-1.01781 0.25446,-2.03563 1.50715,-2.03563 1.331,0 1.31142,1.76161 1.31142,2.70113 v 0.82208 c -1.97691,0.0979 -5.20652,0.45019 -5.20652,3.07303 0,1.40928 1.21355,2.32923 2.54454,2.32923 1.09611,0 2.07478,-0.56763 2.62284,-1.50715 h 0.0391 v 1.29184 z m -1.97692,-3.26876 c 0,0.86123 -0.39147,1.64417 -1.1744,2.05521 -0.21531,0.11744 -0.48934,0.19574 -0.74379,0.19574 -0.76336,0 -1.13526,-0.70465 -1.13526,-1.38972 0,-1.56587 1.8399,-1.87904 3.05345,-1.95734 z"
         id="path1885" />
      <path
         d="m 720.52182,-401.9014 v -9.31694 h -1.97692 v 3.85596 c 0,1.44844 -0.66549,4.20828 -2.50539,4.20828 -1.13526,0 -1.17441,-1.40928 -1.17441,-2.23136 v -5.83288 h -1.97691 v 6.81155 c 0,1.44843 0.78294,2.7207 2.34881,2.7207 1.60502,0 2.62283,-1.05696 3.24918,-2.4271 h 0.0392 v 2.21179 z"
         id="path1882" />
      <path
         d="m 728.44907,-409.37844 v -2.0552 c -1.64416,0.13701 -2.34881,1.23312 -3.0143,2.58369 h -0.0391 v -2.36839 h -1.97691 v 9.31694 h 1.97691 v -4.267 c 0,-2.21179 0.86123,-3.15132 3.05345,-3.21004 z"
         id="path1879" />
      <path
         d="m 737.51156,-406.55987 c 0,-2.77942 -1.09611,-4.87377 -4.12999,-4.87377 -3.03388,0 -4.11041,2.11392 -4.11041,4.87377 0,2.75985 1.07653,4.87378 4.11041,4.87378 3.03388,0 4.12999,-2.09435 4.12999,-4.87378 z m -2.15308,0 c 0,1.33099 -0.0979,4.0517 -1.97691,4.0517 -1.85947,0 -1.95734,-2.72071 -1.95734,-4.0517 0,-1.33099 0.0979,-4.05169 1.95734,-4.05169 1.87905,0 1.97691,2.7207 1.97691,4.05169 z"
         id="path1876" />
      <path
         d="m 758.49418,-401.9014 v -13.50564 h -2.77942 l -3.75809,10.98067 h -0.0392 l -3.73852,-10.98067 h -2.87729 v 13.50564 h 1.62459 v -11.66574 h 0.0392 l 3.95383,11.66574 h 1.64416 l 3.95383,-11.66574 h 0.0391 v 11.66574 z"
         id="path1873" />
      <path
         d="m 768.08515,-401.9014 v -6.00903 c 0,-2.38796 -0.70464,-3.52321 -3.28833,-3.52321 -2.07478,0 -3.42534,0.68507 -3.58193,2.85771 h 2.07478 c 0.0587,-1.01781 0.25445,-2.03563 1.50715,-2.03563 1.33099,0 1.31142,1.76161 1.31142,2.70113 v 0.82208 c -1.97691,0.0979 -5.20653,0.45019 -5.20653,3.07303 0,1.40928 1.21356,2.32923 2.54455,2.32923 1.09611,0 2.07478,-0.56763 2.62283,-1.50715 h 0.0392 v 1.29184 z m -1.97691,-3.26876 c 0,0.86123 -0.39147,1.64417 -1.1744,2.05521 -0.21531,0.11744 -0.48934,0.19574 -0.74379,0.19574 -0.76337,0 -1.13526,-0.70465 -1.13526,-1.38972 0,-1.56587 1.8399,-1.87904 3.05345,-1.95734 z"
         id="path1870" />
      <path
         d="m 773.01766,-401.9014 v -13.50564 h -1.97692 v 13.50564 z"
         id="path1867" />
      <path
         d="m 783.21543,-411.21834 h -1.82033 l -2.19222,6.65496 h -0.0392 l -2.40753,-6.65496 h -2.09435 l 3.54279,9.31694 h 1.72246 z"
         id="path1864" />
      <path
         d="m 791.6124,-407.61683 c 0,-2.38796 -1.05697,-3.81681 -3.58194,-3.81681 -2.85771,0 -3.9734,1.80075 -3.9734,4.46273 0,3.03388 1.42886,5.28482 4.65847,5.28482 1.01782,0 1.78118,-0.13701 2.72071,-0.52848 v -0.90038 c -0.56763,0.25446 -1.17441,0.39147 -1.78118,0.39147 -2.58369,0 -3.62108,-2.68156 -3.62108,-4.89335 z m -1.93777,-0.90038 h -3.58193 c 0.0783,-1.07653 0.66549,-2.09435 1.85947,-2.09435 1.23312,0 1.72246,0.99824 1.72246,2.09435 z"
         id="path1861" />
      <path
         d="m 799.44177,-404.50466 c 0,-2.97516 -4.267,-3.13174 -4.267,-4.81506 0,-0.72421 0.72422,-0.97867 1.33099,-0.97867 0.90038,0 1.62459,0.43062 2.34881,0.91995 v -1.68331 c -0.72422,-0.21531 -1.44843,-0.37189 -2.19222,-0.37189 -1.72246,0 -3.26876,0.78293 -3.26876,2.68155 0,2.66198 4.20828,2.99473 4.20828,4.6389 0,0.86123 -0.8808,1.1744 -1.60502,1.1744 -0.95909,0 -1.82032,-0.45019 -2.58369,-0.97867 v 1.82033 c 0.82209,0.27403 1.6246,0.41104 2.48583,0.41104 1.8399,0 3.54278,-0.72422 3.54278,-2.81857 z"
         id="path1858" />
      <path
         d="m 806.84054,-410.20052 v -1.01782 h -2.54455 v -3.38619 l -1.97691,1.19397 v 2.19222 h -1.48758 v 1.01782 h 1.48758 v 6.14605 c 0,1.91819 1.23313,2.36838 2.93601,2.36838 0.45019,0 0.91995,-0.0196 1.37014,-0.13701 v -1.13526 c -0.2936,0.11744 -0.60678,0.15659 -0.91995,0.15659 -1.38971,0 -1.40929,-0.90038 -1.40929,-2.03564 v -5.36311 z"
         id="path1855" />
      <path
         d="m 810.75519,-413.4497 v -1.95734 h -2.1335 v 1.95734 z m -0.0783,11.5483 v -9.31694 h -1.97691 v 9.31694 z"
         id="path1852" />
      <path
         d="m 821.26614,-406.55987 c 0,-2.77942 -1.09611,-4.87377 -4.12999,-4.87377 -3.03388,0 -4.11042,2.11392 -4.11042,4.87377 0,2.75985 1.07654,4.87378 4.11042,4.87378 3.03388,0 4.12999,-2.09435 4.12999,-4.87378 z m -2.15308,0 c 0,1.33099 -0.0979,4.0517 -1.97691,4.0517 -1.85948,0 -1.95734,-2.72071 -1.95734,-4.0517 0,-1.33099 0.0979,-4.05169 1.95734,-4.05169 1.87904,0 1.97691,2.7207 1.97691,4.05169 z"
         id="path1849" />
    </g>
    <g
       id="g72">
      <g
         id="g74"
         clip-path="url(#clipPath78)">
        <g
           id="g80"
           transform="translate(518.5025,635.6309)">
          <path
             d="M 0,0 H 492.593"
             style="fill:none;stroke:#ffffff;stroke-width:1;stroke-linecap:butt;stroke-linejoin:miter;stroke-miterlimit:4;stroke-dasharray:none;stroke-opacity:1"
             id="path82" />
        </g>
        <g
           id="g84"
           transform="translate(626.5956,650.7617)">
          <path
             d="m 0,0 c -6.627,0 -12,-5.373 -12,-12 v -7.634 c 0,-6.627 5.373,-12 12,-12 h 256.52 c 6.627,0 12,5.373 12,12 V -12 c 0,6.627 -5.373,12 -12,12 z"
             style="fill:#2f5255;fill-opacity:1;fill-rule:nonzero;stroke:none"
             id="path86" />
        </g>
        <g
           id="g88"
           transform="translate(626.5956,650.7617)">
          <path
             d="m 0,0 c -6.627,0 -12,-5.373 -12,-12 v -7.634 c 0,-6.627 5.373,-12 12,-12 h 256.52 c 6.627,0 12,5.373 12,12 V -12 c 0,6.627 -5.373,12 -12,12 z"
             style="fill:none;stroke:#ffffff;stroke-width:1;stroke-linecap:butt;stroke-linejoin:miter;stroke-miterlimit:4;stroke-dasharray:none;stroke-opacity:1"
             id="path90" />
        </g>
      </g>
    </g>
    <text
       xml:space="preserve"
       transform="matrix(1,0,0,-1,709.3611,638.2286)"
       style="font-variant:normal;font-weight:300;font-stretch:normal;font-size:10px;font-family:'Rotis Semi Sans Std Light';-inkscape-font-specification:RotisSemiSansStd-Light;writing-mode:lr-tb;fill:#ffffff;fill-opacity:1;fill-rule:nonzero;stroke:none"
       id="text94"><tspan
         x="0 5.1900001 11.12 16.5 21.32 28.92 34.299999 40.419998 42.830002 48.950001 51.360001 57.290001 62.669998 66.559998 70.449997 73.230003 78.419998 83.800003 88.989998"
         y="0"
         sodipodi:role="line"
         id="tspan92">CHAPMAN &amp; HALL/CRC </tspan></text>
    <text
       xml:space="preserve"
       transform="matrix(1,0,0,-1,664.1216,625.2286)"
       style="font-variant:normal;font-weight:300;font-stretch:normal;font-size:10px;font-family:'Rotis Semi Sans Std Light';-inkscape-font-specification:RotisSemiSansStd-Light;writing-mode:lr-tb;fill:#ffffff;fill-opacity:1;fill-rule:nonzero;stroke:none"
       id="text98"><tspan
         x="0 7.5999999 12.98 18.17 24.1 26.51 32.630001 37.080002 39.490002 43.380001 47.830002 53.209999 58.59 64.709999 67.120003 73.239998 79.169998 81.580002 87.699997 90.110001 94.738998 99.929001 103.819 107.709 112.159 117.539 123.659 126.069 131.44901 135.899 141.089 146.839 152.769 158.88901 161.299 165.189 167.599 173.349"
         y="0"
         sodipodi:role="line"
         id="tspan96">MACHINE LEARNING &amp; PATTERN RECOGNITION</tspan></text>
    <g
       id="g408"
       transform="translate(746.6647,82.4315)"
       clip-path="url(#clipPath1226)">
      <path
         d="m 0,0 c -0.645,0.504 -1.624,0.994 -3.024,0.994 -3.514,0 -5.446,-2.576 -5.446,-5.04 0,-2.702 1.778,-5.097 5.278,-5.097 1.26,0 2.422,0.449 3.08,0.897 l -0.533,0.811 c -0.573,-0.391 -1.413,-0.727 -2.477,-0.727 -2.143,0 -3.85,1.666 -3.85,4.144 0,2.296 1.428,4.032 3.85,4.032 1.05,0 2.1,-0.476 2.562,-0.854 z"
         style="fill:#ffffff;fill-opacity:1;fill-rule:nonzero;stroke:none"
         id="path410" />
    </g>
    <g
       id="g412"
       transform="translate(748.2715,73.4579)"
       clip-path="url(#clipPath1220)">
      <path
         d="M 0,0 H 1.358 V 4.06 H 2.8 L 5.068,-0.169 6.44,0.252 4.004,4.424 C 4.942,5.025 5.643,5.838 5.643,7.279 5.643,8.974 4.396,9.8 2.8,9.8 H 0 Z M 1.358,8.819 H 2.52 c 0.911,0 1.666,-0.462 1.666,-1.666 0,-0.826 -0.321,-2.114 -2.058,-2.114 h -0.77 z"
         style="fill:#ffffff;fill-opacity:1;fill-rule:nonzero;stroke:none"
         id="path414" />
    </g>
    <g
       id="g416"
       transform="translate(764.0206,82.4315)"
       clip-path="url(#clipPath1214)">
      <path
         d="m 0,0 c -0.644,0.504 -1.624,0.994 -3.024,0.994 -3.514,0 -5.446,-2.576 -5.446,-5.04 0,-2.702 1.778,-5.097 5.278,-5.097 1.26,0 2.422,0.449 3.08,0.897 l -0.532,0.811 c -0.574,-0.391 -1.414,-0.727 -2.478,-0.727 -2.142,0 -3.85,1.666 -3.85,4.144 0,2.296 1.428,4.032 3.85,4.032 1.05,0 2.1,-0.476 2.562,-0.854 z"
         style="fill:#ffffff;fill-opacity:1;fill-rule:nonzero;stroke:none"
         id="path418" />
    </g>
    <g
       id="g420"
       transform="translate(771.0016,82.2772)"
       clip-path="url(#clipPath1208)">
      <path
         d="m 0,0 h 0.938 c 1.456,0 2.058,-0.783 2.058,-1.858 0,-1.455 -0.826,-2.154 -2.142,-2.223 L 0.406,-4.095 V -4.997 H 0.84 c 2.198,0 3.612,1.503 3.612,3.152 0,1.901 -1.274,2.825 -3.346,2.825 H -1.358 V -8.819 H 0 Z"
         style="fill:#ffffff;fill-opacity:1;fill-rule:nonzero;stroke:none"
         id="path422" />
    </g>
    <g
       id="g424"
       transform="translate(778.2516,80.4579)"
       clip-path="url(#clipPath1202)">
      <path
         d="m 0,0 h -1.233 v -7 h 1.261 v 3.766 c 0,1.553 0.531,2.198 1.175,2.198 0.323,0 0.63,-0.141 0.938,-0.294 l 0.575,0.811 C 2.324,-0.057 1.862,0.168 1.554,0.168 1.26,0.168 0.798,-0.043 0.504,-0.337 L 0,-0.868 Z"
         style="fill:#ffffff;fill-opacity:1;fill-rule:nonzero;stroke:none"
         id="path426" />
    </g>
    <g
       id="g428"
       transform="translate(782.7994,77.7138)"
       clip-path="url(#clipPath1196)">
      <path
         d="M 0,0 C 0.042,0.896 0.574,2.016 1.918,2.016 3.024,2.016 3.486,1.092 3.486,0 Z m 4.634,-0.841 c 0.14,1.835 -0.574,3.753 -2.703,3.753 -1.582,0 -3.318,-1.106 -3.318,-3.528 0,-2.464 1.443,-3.809 3.627,-3.809 0.728,0 1.596,0.294 2.324,0.813 L 4.2,-2.927 C 3.71,-3.29 2.925,-3.528 2.281,-3.528 c -1.385,0 -2.379,1.288 -2.365,2.687 z"
         style="fill:#ffffff;fill-opacity:1;fill-rule:nonzero;stroke:none"
         id="path430" />
    </g>
    <g
       id="g432"
       transform="translate(792.7653,79.9813)"
       clip-path="url(#clipPath1190)">
      <path
         d="m 0,0 c -0.364,0.364 -1.036,0.645 -1.722,0.645 -1.232,0 -2.324,-0.701 -2.324,-1.807 0,-0.952 0.7,-1.428 1.498,-2.002 0.659,-0.476 1.386,-0.826 1.386,-1.638 0,-0.686 -0.601,-0.994 -1.19,-0.994 -0.56,0 -1.106,0.322 -1.512,0.7 L -4.48,-5.81 c 0.462,-0.532 1.358,-0.882 2.156,-0.882 1.288,0 2.45,0.799 2.45,1.974 0,0.98 -0.588,1.554 -1.484,2.24 -0.798,0.602 -1.442,0.896 -1.442,1.484 0,0.588 0.574,0.798 1.022,0.798 0.378,0 0.784,-0.112 1.288,-0.447 z"
         style="fill:#ffffff;fill-opacity:1;fill-rule:nonzero;stroke:none"
         id="path434" />
    </g>
    <g
       id="g436"
       transform="translate(798.2106,79.9813)"
       clip-path="url(#clipPath1184)">
      <path
         d="m 0,0 c -0.365,0.364 -1.037,0.645 -1.723,0.645 -1.231,0 -2.324,-0.701 -2.324,-1.807 0,-0.952 0.7,-1.428 1.498,-2.002 0.658,-0.476 1.386,-0.826 1.386,-1.638 0,-0.686 -0.602,-0.994 -1.19,-0.994 -0.56,0 -1.105,0.322 -1.512,0.7 L -4.481,-5.81 c 0.462,-0.532 1.358,-0.882 2.156,-0.882 1.288,0 2.45,0.799 2.45,1.974 0,0.98 -0.588,1.554 -1.483,2.24 -0.799,0.602 -1.443,0.896 -1.443,1.484 0,0.588 0.575,0.798 1.022,0.798 0.378,0 0.784,-0.112 1.288,-0.447 z"
         style="fill:#ffffff;fill-opacity:1;fill-rule:nonzero;stroke:none"
         id="path438" />
    </g>
    <g
       id="g440"
       transform="translate(738.8924,64.1735)">
      <path
         d="M 0,0 V 4.379 H -1.557 V 4.865 H 2.238 V 4.379 H 0.674 L 0.674,0 Z"
         style="fill:#ffffff;fill-opacity:1;fill-rule:nonzero;stroke:none"
         id="path442" />
    </g>
    <g
       id="g444">
      <g
         id="g446"
         clip-path="url(#clipPath450)">
        <g
           id="g452"
           transform="translate(742.2591,66.0367)">
          <path
             d="m 0,0 c -0.55,-0.168 -0.834,-0.432 -0.834,-0.87 0,-0.36 0.25,-0.59 0.5,-0.59 0.445,0 1.015,0.549 0.931,1.633 z m 0.375,-1.487 c -0.243,-0.243 -0.549,-0.458 -0.869,-0.458 -0.584,0 -0.987,0.416 -0.987,1.069 0,0.605 0.515,0.986 1.238,1.202 L 0.597,0.59 C 0.57,1.015 0.243,1.285 -0.097,1.285 -0.501,1.285 -0.758,1.118 -1.008,0.91 l -0.243,0.313 c 0.347,0.335 0.701,0.472 1.188,0.472 0.521,0 1.286,-0.167 1.286,-1.18 v -1.53 c 0,-0.264 0.035,-0.597 0.153,-0.848 H 0.695 c -0.083,0.145 -0.098,0.368 -0.098,0.592 z"
             style="fill:#ffffff;fill-opacity:1;fill-rule:nonzero;stroke:none"
             id="path454" />
        </g>
        <g
           id="g456"
           transform="translate(744.6644,67.7194)">
          <path
             d="M 0,0 C 0.354,-0.885 0.716,-1.773 1.063,-2.823 H 1.077 C 1.438,-1.773 1.8,-0.885 2.168,0 L 2.717,-0.134 0.931,-4.157 C 0.604,-4.894 0.174,-5.283 -0.424,-5.283 h -0.313 v 0.445 h 0.243 c 0.431,0 0.737,0.11 1.231,1.486 l -1.363,3.177 z"
             style="fill:#ffffff;fill-opacity:1;fill-rule:nonzero;stroke:none"
             id="path458" />
        </g>
        <g
           id="g460"
           transform="translate(750.0233,65.9528)">
          <path
             d="m 0,0 c 0,-0.653 0.222,-1.417 1.035,-1.417 0.82,0 1.043,0.764 1.043,1.417 0,0.626 -0.257,1.335 -1.043,1.335 C 0.257,1.335 0,0.626 0,0 m -0.675,0 c 0,1.126 0.835,1.779 1.71,1.779 0.876,0 1.717,-0.653 1.717,-1.779 0,-1.078 -0.688,-1.861 -1.717,-1.861 -1.021,0 -1.71,0.783 -1.71,1.861"
             style="fill:#ffffff;fill-opacity:1;fill-rule:nonzero;stroke:none"
             id="path462" />
        </g>
        <g
           id="g464"
           transform="translate(754.179,67.2183)">
          <path
             d="m 0,0 0.251,0.264 c 0.146,0.145 0.375,0.25 0.521,0.25 0.153,0 0.382,-0.112 0.577,-0.34 L 1.064,-0.229 c -0.153,0.076 -0.306,0.145 -0.466,0.145 -0.32,0 -0.584,-0.319 -0.584,-1.092 v -1.869 h -0.626 v 3.476 l 0.612,0 z"
             style="fill:#ffffff;fill-opacity:1;fill-rule:nonzero;stroke:none"
             id="path466" />
        </g>
      </g>
    </g>
    <g
       id="g468"
       transform="translate(765.8953,68.5524)">
      <path
         d="m 0,0 h -1.724 v -1.849 h 1.689 v -0.485 h -1.689 v -2.045 h -0.674 v 4.865 l 2.398,0 z"
         style="fill:#ffffff;fill-opacity:1;fill-rule:nonzero;stroke:none"
         id="path470" />
    </g>
    <g
       id="g472">
      <g
         id="g474"
         clip-path="url(#clipPath478)">
        <g
           id="g480"
           transform="translate(767.3831,67.2183)">
          <path
             d="m 0,0 0.25,0.264 c 0.146,0.145 0.375,0.25 0.521,0.25 0.153,0 0.382,-0.112 0.577,-0.34 L 1.063,-0.229 c -0.153,0.076 -0.306,0.145 -0.466,0.145 -0.32,0 -0.584,-0.319 -0.584,-1.092 v -1.869 h -0.625 v 3.476 l 0.612,0 z"
             style="fill:#ffffff;fill-opacity:1;fill-rule:nonzero;stroke:none"
             id="path482" />
        </g>
        <g
           id="g484"
           transform="translate(770.4344,66.0367)">
          <path
             d="m 0,0 c -0.549,-0.168 -0.834,-0.432 -0.834,-0.87 0,-0.36 0.25,-0.59 0.501,-0.59 0.445,0 1.014,0.549 0.931,1.633 z m 0.375,-1.487 c -0.243,-0.243 -0.549,-0.458 -0.869,-0.458 -0.583,0 -0.987,0.416 -0.987,1.069 0,0.605 0.515,0.986 1.238,1.202 L 0.598,0.59 C 0.57,1.015 0.243,1.285 -0.098,1.285 c -0.403,0 -0.66,-0.167 -0.91,-0.375 l -0.243,0.313 c 0.348,0.335 0.702,0.472 1.189,0.472 0.521,0 1.285,-0.167 1.285,-1.18 v -1.53 c 0,-0.264 0.035,-0.597 0.153,-0.848 H 0.695 c -0.083,0.145 -0.097,0.368 -0.097,0.592 z"
             style="fill:#ffffff;fill-opacity:1;fill-rule:nonzero;stroke:none"
             id="path486" />
        </g>
        <g
           id="g488"
           transform="translate(773.284,67.2183)">
          <path
             d="m 0,0 c 0.327,0.347 0.827,0.514 1.19,0.514 0.798,0 1.229,-0.445 1.229,-1.321 V -3.045 H 1.793 v 2.107 c 0,0.653 -0.278,0.994 -0.841,0.994 -0.493,0 -0.945,-0.341 -0.945,-1.008 v -2.093 h -0.625 v 3.476 l 0.618,0 z"
             style="fill:#ffffff;fill-opacity:1;fill-rule:nonzero;stroke:none"
             id="path490" />
        </g>
        <g
           id="g492"
           transform="translate(779.4012,64.4508)">
          <path
             d="m 0,0 c -0.341,-0.243 -0.751,-0.359 -1.05,-0.359 -1.647,0 -1.856,1.347 -1.856,1.826 0,0.869 0.577,1.814 1.884,1.814 0.354,0 0.674,-0.09 0.931,-0.285 L -0.299,2.643 c -0.202,0.096 -0.459,0.18 -0.716,0.18 -0.57,0 -1.217,-0.375 -1.217,-1.321 0,-0.723 0.369,-1.403 1.21,-1.403 0.299,0 0.577,0.075 0.848,0.25 z"
             style="fill:#ffffff;fill-opacity:1;fill-rule:nonzero;stroke:none"
             id="path494" />
        </g>
        <path
           d="m 780.075,67.649 h 0.625 v -3.476 h -0.625 z m -0.084,1.146 c 0,0.174 0.147,0.37 0.396,0.37 0.251,0 0.397,-0.196 0.397,-0.37 0,-0.187 -0.091,-0.423 -0.397,-0.423 -0.305,0 -0.396,0.236 -0.396,0.423"
           style="fill:#ffffff;fill-opacity:1;fill-rule:nonzero;stroke:none"
           id="path496" />
        <g
           id="g498"
           transform="translate(783.3631,67.0933)">
          <path
             d="m 0,0 c -0.25,0.166 -0.452,0.222 -0.64,0.222 -0.223,0 -0.507,-0.105 -0.507,-0.397 0,-0.292 0.32,-0.437 0.716,-0.736 0.445,-0.34 0.736,-0.626 0.736,-1.112 0,-0.584 -0.576,-0.979 -1.216,-0.979 -0.397,0 -0.841,0.173 -1.07,0.437 l 0.305,0.354 c 0.202,-0.188 0.473,-0.347 0.751,-0.347 0.292,0 0.591,0.153 0.591,0.493 0,0.403 -0.362,0.577 -0.688,0.814 -0.397,0.284 -0.744,0.521 -0.744,0.992 0,0.551 0.542,0.898 1.154,0.898 0.341,0 0.674,-0.138 0.855,-0.321 z"
             style="fill:#ffffff;fill-opacity:1;fill-rule:nonzero;stroke:none"
             id="path500" />
        </g>
        <g
           id="g502"
           transform="translate(790.1214,66.3971)">
          <path
             d="m 0,0 v -1.98 c -0.473,-0.167 -1.063,-0.326 -1.682,-0.326 -1.731,0 -2.621,1.195 -2.621,2.529 0,1.23 0.959,2.502 2.711,2.502 0.709,0 1.265,-0.229 1.557,-0.472 L -0.313,1.849 c -0.292,0.202 -0.737,0.39 -1.273,0.39 -1.264,0 -1.974,-0.862 -1.974,-2.002 0,-1.23 0.841,-2.057 1.898,-2.057 0.411,0 0.716,0.042 0.988,0.173 l 0,1.647 z"
             style="fill:#ffffff;fill-opacity:1;fill-rule:nonzero;stroke:none"
             id="path504" />
        </g>
        <g
           id="g506"
           transform="translate(791.7464,67.2183)">
          <path
             d="m 0,0 0.251,0.264 c 0.146,0.145 0.375,0.25 0.522,0.25 0.153,0 0.381,-0.112 0.577,-0.34 L 1.065,-0.229 c -0.153,0.076 -0.306,0.145 -0.467,0.145 -0.319,0 -0.583,-0.319 -0.583,-1.092 v -1.869 h -0.626 v 3.476 l 0.611,0 z"
             style="fill:#ffffff;fill-opacity:1;fill-rule:nonzero;stroke:none"
             id="path508" />
        </g>
        <g
           id="g510"
           transform="translate(793.992,65.9528)">
          <path
             d="m 0,0 c 0,-0.653 0.222,-1.417 1.035,-1.417 0.822,0 1.044,0.764 1.044,1.417 0,0.626 -0.258,1.335 -1.044,1.335 C 0.257,1.335 0,0.626 0,0 m -0.674,0 c 0,1.126 0.834,1.779 1.709,1.779 0.876,0 1.718,-0.653 1.718,-1.779 0,-1.078 -0.689,-1.861 -1.718,-1.861 -1.021,0 -1.709,0.783 -1.709,1.861"
             style="fill:#ffffff;fill-opacity:1;fill-rule:nonzero;stroke:none"
             id="path512" />
        </g>
        <g
           id="g514"
           transform="translate(799.8582,64.5767)">
          <path
             d="m 0,0 c -0.354,-0.307 -0.666,-0.485 -1.119,-0.485 -0.799,0 -1.23,0.444 -1.23,1.319 v 2.238 h 0.626 V 0.973 c 0,-0.654 0.278,-1 0.841,-1 0.479,0 0.875,0.395 0.875,1.069 v 2.03 h 0.626 v -3.475 l -0.619,0 z"
             style="fill:#ffffff;fill-opacity:1;fill-rule:nonzero;stroke:none"
             id="path516" />
        </g>
        <g
           id="g518"
           transform="translate(804.1893,66.0084)">
          <path
             d="m 0,0 c 0,0.633 -0.32,1.279 -0.967,1.279 -0.708,0 -1.09,-0.549 -1.09,-1.445 0,-0.667 0.305,-1.307 1.084,-1.307 C -0.223,-1.473 0,-0.633 0,0 m -2.057,1.099 h 0.013 c 0.258,0.417 0.751,0.625 1.14,0.625 1.356,0 1.578,-1.216 1.578,-1.717 0,-1.057 -0.626,-1.924 -1.647,-1.924 -0.438,0 -0.813,0.208 -1.071,0.542 h -0.013 v -2.197 h -0.626 v 5.213 h 0.626 z"
             style="fill:#ffffff;fill-opacity:1;fill-rule:nonzero;stroke:none"
             id="path520" />
        </g>
        <g
           id="g522"
           transform="translate(758.972,64.5494)">
          <path
             d="m 0,0 c -0.737,0 -1.084,0.611 -1.084,1.056 0,0.403 0.188,0.764 0.625,1.008 L 1.182,0.59 C 0.98,0.306 0.535,0 0,0 M 1.87,0.764 C 2.102,1.223 2.132,1.741 2.045,2.151 H 1.504 C 1.613,1.79 1.631,1.375 1.495,1.098 l -1.557,1.453 c -0.48,0.437 -0.654,0.694 -0.654,0.972 0,0.307 0.229,0.564 0.682,0.564 0.298,0 0.569,-0.16 0.687,-0.236 l 0.244,0.388 c -0.306,0.223 -0.626,0.333 -0.994,0.333 -0.779,0 -1.3,-0.513 -1.3,-1.084 0,-0.5 0.362,-0.833 0.633,-1.091 -0.577,-0.264 -1.043,-0.764 -1.043,-1.404 0,-0.299 0.215,-1.451 1.731,-1.451 0.674,0 1.223,0.305 1.598,0.729 l 0.793,-0.729 0.618,0.312 z"
             style="fill:#ffffff;fill-opacity:1;fill-rule:nonzero;stroke:none"
             id="path524" />
        </g>
      </g>
    </g>
    <path
       d="m 747.965,64.179 h 0.572 v 5.131 h -0.572 z"
       style="fill:#ffffff;fill-opacity:1;fill-rule:nonzero;stroke:none"
       id="path526" />
    <g
       id="g528">
      <g
         id="g530"
         clip-path="url(#clipPath534)">
        <g
           id="g536"
           transform="translate(732.3561,73.4871)">
          <path
             d="m 0,0 c 0,9.067 -7.351,16.419 -16.419,16.419 -9.068,0 -16.418,-7.352 -16.418,-16.419 0,-9.068 7.35,-16.419 16.418,-16.419 C -7.351,-16.419 0,-9.068 0,0 m -27.288,-4.243 c 0.001,-1.391 0.613,-3.046 1.835,-2.987 1.194,0.059 1.951,1.907 1.951,1.907 l 2.084,0.76 c -0.466,-1.484 -1.182,-4.152 -4.064,-4.21 -2.636,-0.054 -4.107,2.009 -4.107,4.31 0,1.631 0.117,2.826 1.136,4.093 0.867,1.077 1.842,1.516 3.233,1.516 0.735,0 1.383,-0.425 1.805,-0.583 l 0.304,0.639 1.428,0.48 -0.305,-3.422 -1.441,-0.568 c -0.073,1.122 -1.006,2.679 -2.448,1.66 -1.091,-0.772 -1.412,-2.344 -1.411,-3.595 m 12.842,4.309 1.631,-2.097 1.661,0.671 -0.147,-1.341 -4.877,-2.025 0.131,1.354 0.727,0.321 -1.441,1.952 -1.31,-0.547 -0.308,-2.765 0.788,0.327 -0.087,-1.355 -3.836,-1.609 0.095,1.43 0.71,0.276 0.818,7.128 -1.151,-0.468 0.146,1.791 5.402,2.199 c 2.927,0.756 4.004,-3.83 1.048,-5.242 M -4.369,9.049 -4.675,5.628 -6.117,5.06 C -6.189,6.181 -7.122,7.738 -8.564,6.719 -9.656,5.947 -9.976,4.375 -9.975,3.125 c 10e-4,-1.39 0.611,-3.047 1.834,-2.987 1.195,0.059 1.952,1.907 1.952,1.907 l 2.213,0.818 c -0.425,-1.462 -1.262,-4.107 -4.195,-4.268 -2.632,-0.146 -4.105,2.009 -4.105,4.31 0,1.631 0.117,2.826 1.136,4.094 0.867,1.076 1.842,1.514 3.233,1.514 0.735,0 1.383,-0.425 1.805,-0.583 l 0.233,0.464 z m -11.722,-5.561 -1.57,-0.656 -0.252,-2.678 1.938,0.829 c 1.354,0.582 1.107,2.985 -0.116,2.505"
             style="fill:#ffffff;fill-opacity:1;fill-rule:nonzero;stroke:none"
             id="path538" />
        </g>
      </g>
    </g>
    <text
       xml:space="preserve"
       transform="matrix(1,0,0,-1,690.4664,46.7858)"
       style="font-variant:normal;font-weight:500;font-stretch:normal;font-size:8px;font-family:'ITC Stone Sans Std Medium';-inkscape-font-specification:StoneSansStd-Medium;writing-mode:lr-tb;fill:#ffffff;fill-opacity:1;fill-rule:nonzero;stroke:none"
       id="text542"><tspan
         x="0 6.0960002 9.592 16.264 23.096001 29.191999 34.688 43.312 49.408001 56.855999 60.352001 68.071999 71.568001 78.400002 84.496002 89.543999 94.592003 98.087997 103.88 111.448 119.016"
         y="0"
         sodipodi:role="line"
         id="tspan540">A CHAPMAN &amp; HALL BOOK</tspan></text>
  </g>
</svg>
